<?xml version="1.0" standalone="no"?>
<!DOCTYPE svg PUBLIC "-//W3C//DTD SVG 20010904//EN"
 "http://www.w3.org/TR/2001/REC-SVG-20010904/DTD/svg10.dtd">
<svg version="1.0" xmlns="http://www.w3.org/2000/svg"
 width="512.000000pt" height="341.000000pt" viewBox="0 0 512.000000 341.000000"
 preserveAspectRatio="xMidYMid meet">

<g transform="translate(0.000000,341.000000) scale(0.100000,-0.100000)"
fill="#000000" stroke="none">
<path d="M476 3375 c-15 -19 -32 -35 -38 -35 -26 0 -96 -42 -106 -64 -7 -16
-22 -26 -48 -30 -40 -8 -65 -23 -194 -119 l-85 -63 -3 -82 c-2 -66 0 -82 11
-82 8 0 28 -7 43 -15 16 -9 41 -13 55 -10 20 5 40 -4 84 -34 32 -23 66 -41 76
-41 10 0 41 -9 69 -20 l51 -20 118 87 c64 49 130 97 146 108 21 16 28 28 27
53 -1 37 0 37 36 17 57 -31 58 -32 38 -54 -11 -12 -25 -21 -32 -21 -7 0 -17
-6 -21 -13 -4 -6 -26 -25 -48 -42 -22 -16 -42 -32 -45 -35 -3 -3 -43 -36 -90
-72 -47 -36 -94 -75 -104 -87 -22 -24 -46 -28 -46 -6 0 9 -23 21 -62 33 -49
14 -63 22 -63 37 0 22 -31 32 -103 34 -34 1 -45 5 -49 19 -3 13 -20 22 -49 29
l-44 10 0 -161 0 -162 32 -19 c18 -10 42 -27 53 -37 19 -18 18 -19 -33 -64
l-52 -46 0 -1184 0 -1184 646 0 c725 0 661 -8 584 71 -145 150 -169 177 -162
184 4 5 2 5 -4 2 -6 -4 -61 45 -125 111 -62 64 -187 194 -278 288 -174 179
-332 347 -572 607 -63 69 -78 95 -60 106 16 10 39 4 59 -16 15 -15 42 -17 42
-4 0 5 -11 23 -25 39 -14 17 -25 33 -25 38 0 4 -7 15 -15 24 -15 17 -27 92
-18 116 2 7 11 10 19 7 9 -3 14 1 14 12 0 12 6 16 20 12 11 -3 18 -1 14 4 -5
9 4 12 39 12 13 0 16 5 12 21 -2 11 -2 15 1 9 3 -7 10 -13 15 -13 17 0 59 43
59 61 0 10 13 22 33 29 17 6 54 21 81 33 27 12 56 21 63 19 12 -3 17 10 14 31
0 4 6 7 14 7 8 0 15 7 15 15 0 11 7 14 24 9 13 -3 27 -1 31 5 3 6 11 9 16 6 5
-4 9 -1 9 5 0 13 46 32 77 32 13 0 20 4 18 8 -3 5 11 4 31 -2 20 -5 38 -7 41
-4 3 3 16 31 29 61 74 184 262 368 494 485 36 18 77 41 92 52 15 10 58 32 95
47 37 16 97 42 133 58 36 17 90 38 120 48 52 16 98 45 73 45 -7 0 -9 9 -5 22
6 26 32 77 32 65 0 -18 58 34 64 58 4 14 11 25 17 25 6 0 24 10 41 21 19 14
32 18 37 11 8 -13 61 -3 67 13 3 6 17 10 34 7 19 -3 30 0 30 7 0 7 4 10 9 7 5
-3 14 1 21 9 10 12 10 15 -1 15 -12 0 -12 2 0 9 11 7 7 13 -18 25 -17 9 -29
21 -26 26 4 6 -1 10 -9 10 -9 0 -17 7 -17 15 -3 28 -4 33 -11 41 -14 13 -9 34
7 28 8 -4 15 -1 15 5 0 6 7 11 15 11 8 0 15 5 15 11 0 6 7 17 15 25 8 8 12 21
9 29 -5 11 2 15 25 15 17 0 31 5 31 10 0 6 3 9 8 9 26 -4 77 35 67 51 -3 4 4
15 15 25 11 10 20 28 20 41 0 14 12 31 30 44 17 12 30 26 30 31 0 5 -217 9
-550 9 l-551 0 -25 -25 c-19 -19 -31 -24 -52 -19 -37 9 -42 13 -42 30 0 11
-24 14 -134 14 -129 0 -134 -1 -129 -20 8 -30 -43 -47 -69 -23 -10 9 -16 23
-14 30 4 10 -20 13 -118 13 l-124 0 -26 -35z m555 -43 c30 -25 20 -52 -20 -52
-32 0 -63 32 -54 56 7 20 47 17 74 -4z m-326 -12 c22 -24 14 -45 -20 -54 -19
-5 -33 -2 -46 10 -28 25 -24 52 9 57 15 2 30 5 33 6 3 0 14 -8 24 -19z m213
-79 c26 -16 9 -46 -27 -49 -35 -4 -51 9 -51 41 0 13 8 17 33 17 17 0 38 -4 45
-9z m-342 -15 c23 -18 12 -33 -32 -42 -22 -4 -34 -1 -48 15 -10 11 -15 25 -11
30 9 16 68 13 91 -3z m-87 -95 c35 -12 74 -21 87 -21 20 0 53 -35 42 -44 -9
-8 -108 -14 -103 -7 2 5 -1 13 -8 19 -16 13 -97 22 -97 10 0 -5 -5 -6 -10 -3
-6 4 -8 10 -5 15 12 19 -28 35 -105 40 -12 0 -12 3 2 14 22 16 108 6 197 -23z
m282 19 c28 -16 25 -50 -5 -50 -28 0 -51 24 -42 45 6 18 20 19 47 5z m-521
-46 c0 -19 -28 -30 -43 -15 -8 8 -6 15 8 25 22 16 35 12 35 -10z m271 -64 c24
-13 24 -32 0 -54 -18 -17 -21 -17 -45 -1 -31 20 -31 23 -9 47 19 21 27 22 54
8z m-223 -41 c-21 -17 -35 -35 -32 -40 3 -5 -2 -9 -10 -9 -8 0 -19 -7 -24 -17
-7 -11 -16 -14 -28 -9 -18 7 -17 9 6 27 14 11 33 26 42 34 18 15 70 44 78 44
3 0 -12 -13 -32 -30z m-203 -5 c17 -13 18 -16 5 -24 -37 -24 -84 -4 -60 25 16
19 30 18 55 -1z m325 -44 c0 -5 -4 -10 -10 -10 -5 0 -10 5 -10 10 0 6 5 10 10
10 6 0 10 -4 10 -10z m-85 -44 c18 -13 18 -14 -3 -20 -26 -8 -42 -1 -42 20 0
18 21 18 45 0z m-195 -210 c55 -31 136 -68 152 -69 15 -1 13 -6 -9 -29 -32
-34 -41 -35 -45 -7 -2 14 -22 32 -58 51 -30 16 -61 35 -70 42 -8 7 -22 16 -30
19 -9 3 -5 6 10 6 14 0 36 -6 50 -13z"/>
<path d="M2259 2985 c-66 -29 -87 -108 -38 -143 28 -19 23 -39 -10 -45 -32 -7
-54 -36 -45 -60 3 -8 35 -30 72 -47 57 -28 81 -33 162 -37 78 -4 101 -1 130
14 55 28 52 49 -15 97 -19 13 -18 15 18 55 20 23 37 50 37 60 0 30 -45 77 -91
95 -60 24 -176 30 -220 11z"/>
<path d="M3160 2521 c0 -9 52 -31 108 -46 18 -5 22 -2 22 18 0 17 -7 27 -22
31 -35 9 -108 7 -108 -3z"/>
<path d="M2135 2496 c-30 -13 -85 -62 -85 -76 0 -12 67 -60 85 -60 8 0 18 -6
21 -14 3 -8 20 -20 37 -27 l32 -13 -29 -4 c-19 -2 -39 4 -57 17 -37 28 -45 27
-63 -9 -14 -29 -14 -31 10 -46 29 -20 92 -43 117 -44 10 0 40 9 66 20 44 19
51 20 109 6 65 -15 93 -12 149 18 42 21 45 28 27 65 -14 28 -34 42 -34 23 0
-12 -56 -42 -79 -42 -12 0 -21 5 -21 10 0 6 7 10 15 10 23 0 75 29 75 41 0 6
10 19 22 29 21 16 21 20 8 44 -15 28 -87 66 -125 66 -12 0 -39 -13 -60 -30
-21 -16 -44 -30 -51 -30 -7 0 -35 14 -61 30 -52 33 -65 35 -108 16z m322 -53
c-9 -9 -19 -14 -23 -11 -10 10 6 28 24 28 15 0 15 -1 -1 -17z m-37 -33 c0 -5
-7 -10 -15 -10 -8 0 -15 5 -15 10 0 6 7 10 15 10 8 0 15 -4 15 -10z m-92 -33
c4 -19 -23 -23 -48 -7 -13 9 -13 11 0 20 21 14 44 8 48 -13z m-101 7 c-3 -3
-12 -4 -19 -1 -8 3 -5 6 6 6 11 1 17 -2 13 -5z"/>
<path d="M3337 2490 c-6 -22 17 -27 43 -10 13 9 13 11 0 20 -23 15 -37 12 -43
-10z"/>
<path d="M3008 2368 c-72 -19 -112 -103 -73 -154 20 -27 19 -28 -18 -42 -83
-30 -67 -99 35 -150 140 -71 334 -66 381 9 12 19 -13 58 -52 82 l-23 14 30 21
c67 49 63 131 -9 179 -69 45 -187 63 -271 41z m232 -89 c0 -5 -20 -9 -45 -9
-53 0 -59 13 -12 27 31 10 57 2 57 -18z m-260 -176 c0 -9 -3 -14 -6 -11 -3 4
-21 0 -40 -8 -43 -18 -45 -3 -1 19 41 20 47 20 47 0z m-4 -70 c-10 -10 -19 5
-10 18 6 11 8 11 12 0 2 -7 1 -15 -2 -18z"/>
<path d="M3516 2227 c-54 -54 -20 -106 80 -127 97 -20 145 3 135 66 -9 53 -45
77 -125 82 -59 4 -67 2 -90 -21z m112 -4 c5 -11 4 -33 -2 -56 -12 -40 -26 -40
-26 0 0 27 -6 28 -49 7 -23 -11 -36 -13 -43 -6 -7 7 1 15 27 26 21 9 44 16 51
16 8 0 14 7 14 15 0 20 17 19 28 -2z m72 -22 c0 -4 -11 -6 -25 -3 -14 2 -25 6
-25 8 0 2 11 4 25 4 14 0 25 -4 25 -9z"/>
<path d="M3867 2213 c-8 -10 -18 -30 -22 -44 -5 -22 0 -31 32 -58 47 -39 126
-64 168 -53 26 7 30 13 33 48 5 72 -59 124 -151 124 -29 0 -49 -6 -60 -17z
m110 -12 c3 -13 11 -17 24 -14 18 5 49 -12 49 -26 0 -3 -20 -5 -43 -3 -39 3
-47 0 -71 -29 -20 -24 -30 -29 -36 -20 -11 20 0 50 21 56 10 4 22 17 25 31 7
29 24 32 31 5z"/>
<path d="M4156 2189 c52 -57 120 -158 147 -217 15 -33 22 -42 25 -29 7 35 -62
159 -121 217 -71 68 -105 88 -51 29z"/>
<path d="M1655 2200 c-103 -23 -307 -97 -445 -163 -79 -38 -100 -52 -86 -57
16 -5 11 -11 -30 -35 -81 -47 -176 -120 -235 -183 -68 -71 -75 -83 -84 -144
-9 -59 16 -108 81 -157 49 -37 53 -54 24 -91 -26 -33 -26 -36 16 -84 65 -76
99 -107 137 -127 21 -11 47 -29 58 -40 16 -16 23 -18 35 -8 12 10 17 8 29 -7
10 -12 13 -13 10 -4 -8 22 39 19 64 -4 11 -10 27 -16 35 -13 8 3 24 -3 37 -14
12 -10 28 -19 35 -19 7 0 25 -13 41 -28 31 -31 63 -47 63 -32 0 6 5 10 11 10
8 0 8 -5 -1 -15 -7 -8 -19 -15 -26 -15 -19 0 -18 -25 2 -45 21 -21 48 -15 52
11 4 31 58 41 86 16 30 -27 56 -35 56 -17 0 27 40 12 93 -34 l27 -25 0 24 c0
13 3 20 8 16 4 -4 7 -15 7 -24 0 -23 32 -67 37 -51 6 17 41 3 77 -31 20 -19
31 -25 31 -16 0 8 -6 17 -12 20 -7 3 -2 3 12 0 14 -3 31 -14 39 -25 7 -10 19
-19 25 -19 6 0 17 -9 24 -20 7 -12 17 -18 22 -15 6 3 10 2 10 -4 0 -5 14 -20
32 -32 17 -13 29 -18 25 -12 -4 6 0 14 9 17 22 8 24 8 18 -7 -6 -17 31 -51 45
-42 6 3 11 1 11 -4 0 -6 -4 -11 -10 -11 -5 0 -10 -5 -10 -10 0 -6 6 -10 13 -9
25 3 55 -13 60 -32 4 -13 13 -18 28 -17 16 2 28 -6 43 -31 19 -33 19 -34 1
-27 -11 4 -16 4 -12 0 17 -17 76 -32 82 -20 2 6 2 1 -1 -11 -3 -13 -1 -23 5
-23 6 0 11 -7 11 -16 0 -9 5 -12 12 -8 6 4 16 1 22 -7 12 -16 46 -22 46 -8 0
5 -5 9 -11 9 -6 0 -17 6 -25 14 -12 13 -11 16 8 22 13 4 24 2 26 -5 5 -15 49
-14 56 2 2 6 3 -5 0 -25 -5 -36 1 -44 29 -39 5 1 6 -3 3 -8 -4 -5 5 -11 20
-13 l26 -3 -33 -19 c-22 -13 -29 -14 -24 -5 5 8 5 11 0 7 -8 -8 -35 15 -35 30
0 13 -27 23 -45 16 -19 -8 -19 -20 1 -28 8 -3 12 -2 9 4 -12 19 6 10 32 -16
18 -18 22 -28 14 -33 -17 -11 33 -35 55 -27 14 5 15 4 4 -9 -7 -9 -10 -18 -6
-22 3 -3 6 -2 6 4 0 6 10 13 23 17 16 4 19 8 9 15 -11 6 -10 10 4 15 9 3 19 4
22 1 3 -3 -1 -5 -8 -5 -11 0 -11 -3 -2 -12 10 -10 15 -10 22 1 7 12 13 12 32
3 l23 -12 -25 5 c-24 6 -24 5 -6 -9 17 -14 21 -14 36 -1 19 17 36 19 44 6 4
-5 -4 -7 -16 -3 -14 3 -19 2 -14 -6 7 -12 -12 -17 -43 -12 -13 1 -13 -1 -2
-14 21 -25 -8 -21 -36 6 -19 18 -25 19 -36 8 -10 -10 -9 -11 1 -5 8 4 13 2 11
-6 -3 -29 2 -39 19 -39 14 0 15 2 2 10 -9 6 -10 10 -3 10 7 0 16 -7 21 -16 5
-9 13 -17 18 -17 5 -1 8 -6 6 -10 -1 -5 1 -6 6 -3 12 7 49 -20 40 -30 -4 -4
-14 -1 -23 6 -34 28 -12 -5 25 -37 22 -19 37 -39 34 -44 -3 -5 2 -6 10 -3 9 4
16 1 16 -6 0 -7 8 -10 19 -7 22 6 57 -26 46 -42 -3 -6 -1 -11 4 -11 6 0 11 5
11 11 0 5 4 8 9 5 5 -3 7 -15 4 -26 -5 -20 2 -20 958 -20 624 0 959 4 949 10
-9 6 -10 10 -3 10 6 0 14 -4 17 -8 3 -5 80 -10 171 -11 l165 -1 0 572 0 573
-33 20 c-17 11 -57 29 -87 39 -30 11 -66 28 -79 38 -27 21 -46 24 -34 6 4 -7
-5 -5 -20 5 -14 9 -33 17 -42 17 -9 0 -18 6 -21 14 -3 8 -12 12 -20 9 -8 -3
-14 0 -14 6 0 6 -8 11 -19 11 -10 0 -24 7 -31 15 -14 17 -40 20 -40 5 0 -15
-52 0 -71 20 -9 9 -32 23 -50 30 -18 8 -42 23 -52 33 -10 10 -25 16 -33 13 -7
-3 -18 2 -22 11 -6 11 -18 14 -35 11 -15 -3 -24 -1 -21 3 6 11 -34 32 -46 24
-6 -3 -10 -1 -10 4 0 6 -9 11 -19 11 -15 0 -27 -19 -50 -77 -26 -65 -37 -69
-14 -6 3 10 4 16 1 13 -7 -6 -52 -116 -78 -188 -11 -29 -25 -65 -33 -80 -19
-34 -40 -84 -43 -98 -1 -7 -9 -25 -17 -40 -9 -16 -21 -39 -26 -52 -6 -12 -19
-32 -30 -43 -10 -11 -21 -34 -25 -50 -3 -16 -11 -28 -18 -27 -7 2 -12 -8 -13
-22 0 -15 -6 -25 -15 -25 -8 -1 -14 -6 -12 -13 1 -7 -2 -12 -7 -12 -5 0 -14
-14 -20 -30 -5 -17 -17 -33 -26 -36 -8 -3 -15 -16 -15 -27 0 -20 0 -20 -15 -1
-10 12 -13 13 -10 3 3 -8 -4 -24 -16 -35 -13 -10 -19 -13 -14 -5 6 10 4 12 -4
7 -7 -5 -10 -14 -7 -22 4 -9 -2 -14 -16 -14 -17 0 -18 -2 -8 -15 10 -12 10
-15 -3 -15 -8 0 -18 6 -21 13 -4 6 -4 2 -2 -11 3 -15 -2 -26 -15 -32 -10 -6
-19 -20 -19 -30 0 -11 -5 -20 -11 -20 -5 0 -7 5 -4 10 3 6 1 10 -4 10 -6 0
-11 -5 -11 -11 0 -5 -4 -8 -9 -5 -5 3 -11 -3 -14 -14 -3 -12 -14 -20 -27 -20
-11 0 -18 -5 -15 -10 3 -6 -1 -10 -10 -10 -9 0 -30 -13 -48 -30 -18 -16 -38
-30 -46 -30 -18 0 -84 -23 -91 -31 -11 -13 -80 -20 -80 -8 0 7 -8 6 -24 -5
-14 -9 -33 -13 -42 -9 -10 3 -15 2 -12 -3 4 -5 -8 -8 -25 -8 -18 1 -40 -3 -51
-8 -14 -8 -17 -7 -11 2 5 9 -2 8 -21 -2 -16 -9 -41 -20 -56 -26 -15 -6 -28
-21 -31 -34 l-4 -23 -2 23 c0 12 -5 22 -10 22 -10 0 -21 -73 -21 -144 0 -28
-4 -46 -8 -40 -4 6 -17 14 -29 18 -13 4 -23 12 -23 18 0 6 6 6 15 -2 23 -19
20 12 -4 41 -16 20 -21 21 -35 10 -13 -11 -20 -9 -45 11 l-29 25 29 1 c20 0
29 -4 27 -13 -2 -8 2 -14 7 -14 19 -2 10 24 -13 35 -13 6 -29 17 -35 23 -17
17 -31 13 -16 -6 13 -15 12 -15 -8 -5 -12 7 -25 17 -28 22 -4 6 -11 8 -16 4
-5 -3 -7 -9 -5 -13 3 -4 -4 -8 -15 -8 -12 -1 -18 3 -16 10 3 7 10 11 16 9 6
-1 14 5 17 13 3 8 10 12 15 9 5 -3 9 0 9 5 0 6 -3 11 -8 11 -4 0 -31 22 -60
48 -60 55 -71 85 -19 53 19 -11 37 -17 41 -13 4 4 6 0 4 -8 -2 -9 4 -15 15
-15 9 0 26 -15 37 -33 11 -18 25 -30 30 -27 6 4 9 3 8 -2 -2 -4 6 -19 16 -33
12 -17 16 -19 12 -6 -5 14 -2 17 10 12 8 -3 18 -6 20 -6 3 0 3 -4 0 -9 -3 -5
0 -13 7 -19 9 -8 12 91 12 481 -1 549 -2 555 -69 658 -20 29 -36 57 -36 61 0
5 -5 8 -11 8 -6 0 -16 6 -24 13 -28 27 -70 54 -143 93 -42 22 -76 46 -75 52 2
7 0 11 -5 11 -33 -5 -62 11 -67 37 -2 10 -4 21 -4 24 -3 14 -21 -28 -21 -47 0
-13 -5 -23 -10 -23 -21 0 -370 185 -370 196 0 2 9 8 20 14 17 9 25 6 53 -23
17 -18 70 -54 117 -79 67 -36 90 -44 108 -37 16 6 22 5 22 -5 0 -8 6 -16 13
-18 19 -8 37 2 37 21 0 11 -34 34 -102 70 -57 30 -140 74 -184 98 -89 47 -114
52 -114 26 -1 -17 -1 -17 -11 0 -5 9 -17 17 -25 17 -9 0 -21 6 -29 13 -7 6
-25 21 -39 31 -14 10 -26 25 -26 32 0 8 -11 21 -25 30 -24 16 -27 16 -47 -2
-21 -19 -21 -19 -15 4 4 18 2 22 -9 18 -8 -3 -23 3 -34 14 -11 11 -25 20 -31
20 -5 0 -8 4 -5 9 6 9 -18 34 -25 26 -3 -2 -4 12 -4 31 1 25 -4 39 -19 50 -15
10 -16 14 -6 15 36 3 78 -4 110 -18 103 -44 111 -39 13 7 -74 35 -164 46 -238
30z m-469 -205 c-11 -8 -25 -15 -30 -15 -6 1 0 7 14 15 32 19 40 18 16 0z
m829 -176 c-4 -5 -16 -9 -28 -9 -21 1 -21 1 -3 15 20 15 41 11 31 -6z m2188
-604 c-3 -9 -8 -14 -10 -11 -3 3 -2 9 2 15 9 16 15 13 8 -4z m-24 -64 c-6 -18
-13 -30 -15 -28 -2 2 1 18 7 36 6 18 13 30 15 28 2 -2 -1 -18 -7 -36z m762
-54 c-8 -8 -11 -5 -11 9 0 27 14 41 18 19 2 -9 -1 -22 -7 -28z m-849 -153
c-54 -120 -166 -324 -178 -324 -3 0 7 19 21 43 36 58 157 299 186 370 13 32
25 55 26 50 2 -5 -23 -67 -55 -139z m838 -4 c8 -5 11 -10 5 -10 -5 0 -17 5
-25 10 -8 5 -10 10 -5 10 6 0 17 -5 25 -10z m45 -20 c-3 -5 -11 -10 -16 -10
-6 0 -7 5 -4 10 3 6 11 10 16 10 6 0 7 -4 4 -10z m-3142 -38 c3 7 6 3 6 -9 1
-30 -10 -29 -42 5 -36 38 -35 53 2 18 21 -20 30 -24 34 -14z m3192 -42 c4 -6
10 -8 15 -5 5 3 11 1 14 -4 3 -5 -3 -11 -14 -14 -13 -3 -24 1 -30 14 -11 20 3
28 15 9z m-2611 -149 c-2 -3 -12 3 -22 13 -16 17 -16 18 5 5 12 -7 20 -15 17
-18z m-19 -31 c-3 -5 1 -10 9 -10 9 0 16 -4 16 -9 0 -6 -8 -9 -19 -8 -11 1
-17 7 -16 17 5 21 4 20 11 20 3 0 2 -4 -1 -10z m1505 -69 c-5 -11 -15 -23 -22
-27 -7 -5 -8 -2 -3 7 21 37 44 55 25 20z m-1290 -77 c0 -4 -11 3 -25 16 -14
13 -25 27 -25 32 0 5 11 -2 25 -16 14 -14 25 -28 25 -32z m-265 14 c5 4 5 1 1
-6 -5 -9 -12 -9 -27 -2 -11 6 -16 16 -13 22 5 7 11 6 19 -5 7 -9 16 -13 20 -9z
m138 -32 c4 -10 1 -13 -9 -9 -15 6 -19 23 -5 23 5 0 11 -7 14 -14z m167 -11
c5 -14 14 -25 19 -25 12 0 61 -44 61 -54 0 -8 -67 31 -87 50 -7 7 -10 20 -6
30 4 12 3 15 -5 10 -7 -4 -12 -2 -12 3 0 21 21 11 30 -14z m-78 -35 c34 -21
79 -30 48 -10 -8 5 -10 10 -4 10 12 0 34 -20 34 -32 0 -4 -7 -5 -15 -2 -21 8
-19 -13 3 -25 16 -9 16 -11 -3 -25 -11 -8 -27 -15 -35 -15 -8 0 -4 5 10 10 18
7 21 12 11 18 -7 5 -12 11 -11 15 3 13 -6 23 -45 49 -46 31 -41 36 7 7z m2206
-5 c-3 -3 -9 2 -12 12 -6 14 -5 15 5 6 7 -7 10 -15 7 -18z m26 3 c-5 -8 -2 -9
9 -5 10 4 16 2 14 -6 -1 -6 9 -13 22 -15 17 -3 20 -6 11 -12 -15 -9 -70 20
-70 38 0 6 5 12 11 12 5 0 7 -5 3 -12z m-2214 -49 c0 -6 -4 -7 -10 -4 -5 3
-10 11 -10 16 0 6 5 7 10 4 6 -3 10 -11 10 -16z m117 -11 c3 -10 12 -18 19
-18 8 0 14 -4 14 -10 0 -14 -4 -13 -44 11 -20 12 -36 27 -36 34 0 20 42 5 47
-17z m2198 -6 c-3 -3 -11 0 -18 7 -9 10 -8 11 6 5 10 -3 15 -9 12 -12z m-80
-10 c-3 -3 -11 0 -18 7 -9 10 -8 11 6 5 10 -3 15 -9 12 -12z m55 -2 c0 -5 -5
-10 -11 -10 -5 0 -7 5 -4 10 3 6 8 10 11 10 2 0 4 -4 4 -10z m55 -20 c3 -5 1
-10 -4 -10 -6 0 -11 5 -11 10 0 6 2 10 4 10 3 0 8 -4 11 -10z m-2290 -10 c3
-5 1 -10 -4 -10 -6 0 -11 5 -11 10 0 6 2 10 4 10 3 0 8 -4 11 -10z m65 -5 c0
-12 -19 -12 -23 0 -4 9 -1 12 9 8 7 -3 14 -7 14 -8z m-144 -7 c4 -7 4 -10 -1
-6 -4 4 -14 3 -22 -4 -11 -8 -17 -8 -26 2 -10 10 -9 12 5 7 10 -3 20 -2 23 3
8 13 12 13 21 -2z m221 -34 c-9 -9 -28 6 -21 18 4 6 10 6 17 -1 6 -6 8 -13 4
-17z m2208 -4 c3 -6 -1 -7 -9 -4 -18 7 -21 14 -7 14 6 0 13 -4 16 -10z m-2230
-10 c3 -5 1 -10 -4 -10 -6 0 -11 5 -11 10 0 6 2 10 4 10 3 0 8 -4 11 -10z
m-45 -46 c0 -8 9 -14 21 -14 11 0 17 -5 14 -10 -8 -14 -41 5 -55 30 -9 16 -8
18 5 14 8 -4 15 -12 15 -20z m425 -44 c37 -10 10 -12 -34 -4 -17 4 -31 11 -31
16 0 6 8 7 18 3 9 -4 31 -11 47 -15z m-350 -10 c10 -11 15 -23 12 -27 -4 -3
-7 -1 -7 5 0 6 -9 14 -20 17 -11 3 -20 11 -20 16 0 15 16 10 35 -11z m-41 -42
c-3 -4 0 -8 7 -8 7 0 10 -3 7 -6 -10 -9 -48 16 -48 31 0 13 4 13 19 3 11 -7
17 -16 15 -20z m64 -29 c12 -18 11 -19 -6 -10 -11 6 -22 17 -25 25 -8 21 16
10 31 -15z m2102 -95 c0 -2 -9 0 -20 6 -11 6 -20 13 -20 16 0 2 9 0 20 -6 11
-6 20 -13 20 -16z"/>
<path d="M1995 2110 c3 -4 14 -10 25 -13 11 -3 18 -2 15 3 -3 4 -14 10 -25 13
-11 3 -18 2 -15 -3z"/>
<path d="M3579 2031 c-16 -16 -29 -40 -29 -53 0 -62 137 -124 216 -98 41 14
50 40 32 95 -10 32 -22 45 -58 63 -65 32 -124 30 -161 -7z m161 -10 c0 -5 -9
-30 -21 -56 -21 -47 -33 -52 -34 -12 0 32 -48 47 -74 23 -13 -12 -21 -14 -26
-6 -4 7 -3 16 3 22 26 26 152 51 152 29z"/>
<path d="M3671 2011 c-11 -7 -10 -11 6 -20 22 -11 33 -6 33 16 0 15 -18 17
-39 4z"/>
<path d="M2150 2035 c0 -3 68 -39 150 -80 83 -41 150 -73 150 -70 0 3 -67 39
-150 80 -82 41 -150 73 -150 70z"/>
<path d="M3935 1995 c-14 -13 -25 -36 -25 -51 0 -65 113 -148 192 -142 l43 3
3 56 c3 49 -1 61 -25 89 -31 37 -94 69 -136 70 -17 0 -38 -10 -52 -25z m110
-15 c-3 -5 -11 -10 -16 -10 -6 0 -7 5 -4 10 3 6 11 10 16 10 6 0 7 -4 4 -10z"/>
<path d="M2460 1876 c0 -3 77 -44 170 -91 94 -48 201 -106 238 -131 60 -40 63
-41 27 -9 -36 32 -435 243 -435 231z"/>
<path d="M1810 766 c0 -2 7 -7 16 -10 8 -3 12 -2 9 4 -6 10 -25 14 -25 6z"/>
<path d="M780 682 c0 -12 19 -26 26 -19 2 2 -2 10 -11 17 -9 8 -15 8 -15 2z"/>
<path d="M871 594 c0 -11 3 -14 6 -6 3 7 2 16 -1 19 -3 4 -6 -2 -5 -13z"/>
<path d="M900 566 c0 -2 8 -10 18 -17 15 -13 16 -12 3 4 -13 16 -21 21 -21 13z"/>
<path d="M980 495 c0 -5 5 -17 10 -25 5 -8 10 -10 10 -5 0 6 -5 17 -10 25 -5
8 -10 11 -10 5z"/>
<path d="M1015 450 c3 -5 8 -10 11 -10 2 0 4 5 4 10 0 6 -5 10 -11 10 -5 0 -7
-4 -4 -10z"/>
<path d="M1068 397 c12 -13 22 -28 22 -34 0 -7 9 -15 20 -18 11 -4 18 -11 15
-16 -4 -5 1 -9 9 -9 9 0 16 -6 16 -13 0 -8 12 -19 26 -26 17 -7 24 -17 20 -26
-3 -9 1 -15 10 -15 8 0 17 -7 20 -15 4 -8 11 -15 18 -15 6 0 22 -18 35 -40 14
-21 28 -37 33 -34 4 3 8 0 8 -6 0 -6 5 -8 12 -4 7 4 8 3 4 -4 -4 -7 -14 -12
-22 -12 -8 0 -14 -5 -14 -11 0 -5 5 -7 11 -3 6 3 15 0 20 -7 6 -11 11 -11 21
-1 9 9 22 1 61 -39 26 -28 53 -49 58 -47 10 3 -403 418 -417 418 -4 0 2 -10
14 -23z"/>
<path d="M1150 270 c8 -5 22 -9 30 -9 10 0 8 3 -5 9 -27 12 -43 12 -25 0z"/>
<path d="M1200 209 c0 -5 5 -7 10 -4 6 3 10 8 10 11 0 2 -4 4 -10 4 -5 0 -10
-5 -10 -11z"/>
<path d="M2800 70 c0 -5 5 -10 11 -10 5 0 7 5 4 10 -3 6 -8 10 -11 10 -2 0 -4
-4 -4 -10z"/>
<path d="M1350 66 c0 -2 7 -9 15 -16 9 -7 15 -8 15 -2 0 5 -7 12 -15 16 -8 3
-15 4 -15 2z"/>
<path d="M1305 40 c3 -5 8 -10 11 -10 2 0 4 5 4 10 0 6 -5 10 -11 10 -5 0 -7
-4 -4 -10z"/>
<path d="M2828 13 c7 -3 16 -2 19 1 4 3 -2 6 -13 5 -11 0 -14 -3 -6 -6z"/>
</g>
</svg>
