<?xml version="1.0" encoding="UTF-8"?>
<!DOCTYPE svg PUBLIC "-//W3C//DTD SVG 1.1//EN" "http://www.w3.org/Graphics/SVG/1.1/DTD/svg11.dtd">
<svg xmlns="http://www.w3.org/2000/svg" version="1.1" width="300px" height="300px" style="shape-rendering:geometricPrecision; text-rendering:geometricPrecision; image-rendering:optimizeQuality; fill-rule:evenodd; clip-rule:evenodd" xmlns:xlink="http://www.w3.org/1999/xlink">
<g><path style="opacity:1" fill="#fefefe" d="M -0.5,-0.5 C 99.5,-0.5 199.5,-0.5 299.5,-0.5C 299.5,99.5 299.5,199.5 299.5,299.5C 199.5,299.5 99.5,299.5 -0.5,299.5C -0.5,199.5 -0.5,99.5 -0.5,-0.5 Z"/></g>
<g><path style="opacity:1" fill="#444443" d="M 46.5,110.5 C 43.8127,110.336 41.146,110.503 38.5,111C 37.944,111.383 37.6107,111.883 37.5,112.5C 28.6715,113.161 25.5049,109.161 28,100.5C 29.3684,94.0257 31.2017,87.6923 33.5,81.5C 35.8511,79.7711 38.5178,79.1044 41.5,79.5C 41.7367,75.7267 41.2367,72.0601 40,68.5C 36.7959,65.6312 33.9626,62.4646 31.5,59C 26.7379,58.0328 22.0712,56.6994 17.5,55C 14.9634,52.128 12.1301,49.628 9,47.5C 4.30011,37.616 6.46678,29.7826 15.5,24C 18.9994,22.8799 21.8328,23.7132 24,26.5C 25.6369,23.2835 26.9702,19.9502 28,16.5C 29.231,15.8922 30.5643,15.5589 32,15.5C 36.1485,16.0361 40.3152,16.3694 44.5,16.5C 50.9003,16.2067 57.2336,15.7067 63.5,15C 65.4035,17.8774 66.4035,21.0441 66.5,24.5C 86.8004,20.3208 93.6337,28.3208 87,48.5C 81.0618,58.2156 72.5618,62.7156 61.5,62C 60.2713,63.5292 58.7713,64.6959 57,65.5C 56.3988,67.1368 55.8988,68.8034 55.5,70.5C 56.3022,73.4486 56.6355,76.4486 56.5,79.5C 59.9297,79.1065 63.0964,79.7732 66,81.5C 68.6667,88.1667 71.3333,94.8333 74,101.5C 74.9299,104.85 74.0965,107.683 71.5,110C 63.1733,110.5 54.84,110.666 46.5,110.5 Z"/></g>
<g><path style="opacity:1" fill="#fdcb8d" d="M 59.5,16.5 C 62.3882,16.2196 63.8882,17.5529 64,20.5C 66.5068,32.0466 65.8401,43.3799 62,54.5C 59.3333,58.5 56,61.8333 52,64.5C 52.1637,69.1547 52.1637,73.8214 52,78.5C 49.9592,79.4231 47.7925,79.7564 45.5,79.5C 47.376,69.8922 44.0427,63.0589 35.5,59C 31.2219,54.6094 28.3886,49.4427 27,43.5C 24.206,34.8439 25.0393,26.6772 29.5,19C 39.7218,18.9603 49.7218,18.127 59.5,16.5 Z"/></g>
<g><path style="opacity:1" fill="#efc086" d="M 74.5,23.5 C 78.6481,24.9817 82.1481,27.315 85,30.5C 86.8961,46.4759 80.0628,55.1426 64.5,56.5C 64.9767,55.5224 65.6433,54.6891 66.5,54C 78.0473,49.7416 82.3807,41.5749 79.5,29.5C 75.8661,28.4893 72.1994,28.4893 68.5,29.5C 69.4872,26.5128 71.4872,24.5128 74.5,23.5 Z"/></g>
<g><path style="opacity:1" fill="#f2c388" d="M 17.5,26.5 C 19.7834,26.6079 21.7834,27.4412 23.5,29C 16.0763,30.0085 13.2429,34.1751 15,41.5C 15.3459,43.8477 16.5125,45.6811 18.5,47C 22.3808,48.401 25.0474,50.901 26.5,54.5C 19.869,54.4328 15.0357,51.4328 12,45.5C 8.76265,37.5603 10.596,31.227 17.5,26.5 Z"/></g>
<g><path style="opacity:1" fill="#fff7ed" d="M 60.5,22.5 C 61.1174,22.6107 61.6174,22.944 62,23.5C 62.6667,28.8333 62.6667,34.1667 62,39.5C 61.6266,33.8112 61.1266,28.1445 60.5,22.5 Z"/></g>
<g><path style="opacity:1" fill="#fefffe" d="M 22.5,31.5 C 23.4824,35.3164 24.1491,39.3164 24.5,43.5C 18.9774,43.4381 17.144,40.7714 19,35.5C 19.6897,33.6498 20.8564,32.3164 22.5,31.5 Z"/></g>
<g><path style="opacity:1" fill="#fefffe" d="M 71.5,31.5 C 73.5,31.5 75.5,31.5 77.5,31.5C 77.7454,38.6708 75.0787,44.3374 69.5,48.5C 69.9453,43.7202 69.9453,38.8868 69.5,34C 70.3805,33.2917 71.0472,32.4584 71.5,31.5 Z"/></g>
<g><path style="opacity:1" fill="#baa077" d="M 30.5,38.5 C 33.8917,45.7594 38.3917,52.4261 44,58.5C 44.9819,59.7589 45.3152,61.0922 45,62.5C 35.782,57.0513 30.9487,49.0513 30.5,38.5 Z"/></g>
<g><path style="opacity:1" fill="#434343" d="M 192.5,200.5 C 192.5,203.167 192.5,205.833 192.5,208.5C 191.206,209.29 190.039,210.29 189,211.5C 189.002,224.173 191.835,236.173 197.5,247.5C 189.013,246.838 180.846,244.838 173,241.5C 169.446,241.961 166.28,243.294 163.5,245.5C 167.572,256.144 172.572,266.31 178.5,276C 181.167,276.333 183.833,276.667 186.5,277C 189.167,279 189.167,281 186.5,283C 181.725,284.159 177.392,283.326 173.5,280.5C 167.578,269.657 161.911,258.657 156.5,247.5C 145.615,247.59 134.615,247.424 123.5,247C 118.012,246.504 112.845,245.004 108,242.5C 102.561,251.665 99.0609,261.332 97.5,271.5C 90.8306,274.467 83.8306,275.967 76.5,276C 73.8333,274 73.8333,272 76.5,270C 81.2644,269.152 85.9311,267.985 90.5,266.5C 93.3797,256.862 97.0464,247.528 101.5,238.5C 98.8333,235.5 96.1667,232.5 93.5,229.5C 82.5299,232.049 73.0299,229.383 65,221.5C 63.2229,218.28 61.7229,214.947 60.5,211.5C 48.6866,207.347 42.02,199.014 40.5,186.5C 40.7309,181.644 42.0642,177.144 44.5,173C 40.9635,168.1 37.7968,162.934 35,157.5C 30.1239,142.207 30.9572,127.207 37.5,112.5C 39.5,112.5 41.5,112.5 43.5,112.5C 49.5563,112.066 55.5563,112.066 61.5,112.5C 69.5156,124.69 78.8489,135.856 89.5,146C 93.091,148.805 97.091,149.805 101.5,149C 84.5585,131.198 84.2252,113.031 100.5,94.5C 107.607,84.5747 116.94,77.408 128.5,73C 131.562,72.2585 134.562,72.4252 137.5,73.5C 140.873,66.5818 144.873,60.0818 149.5,54C 153.614,50.9489 157.614,50.9489 161.5,54C 152.576,57.0803 145.91,62.9136 141.5,71.5C 141.709,72.086 142.043,72.586 142.5,73C 144.5,73.6667 146.5,73.6667 148.5,73C 153.159,68.9948 158.493,67.3281 164.5,68C 167.939,69.2022 169.273,71.3689 168.5,74.5C 164.612,70.128 159.946,69.2947 154.5,72C 152.884,72.6152 151.551,73.6152 150.5,75C 159.585,78.2911 167.419,83.4578 174,90.5C 180.31,102.075 183.643,114.409 184,127.5C 183.64,129.608 182.973,131.608 182,133.5C 177.978,138.021 174.144,142.688 170.5,147.5C 170.709,148.086 171.043,148.586 171.5,149C 178.224,150.363 184.891,151.863 191.5,153.5C 190.531,169.18 190.864,184.847 192.5,200.5 Z"/></g>
<g><path style="opacity:1" fill="#fff5e9" d="M 54.5,53.5 C 58.193,54.2471 58.193,55.5804 54.5,57.5C 53.3744,56.1916 53.3744,54.8583 54.5,53.5 Z"/></g>
<g><path style="opacity:1" fill="#d89696" d="M 100.5,94.5 C 102.82,92.7739 105.487,92.1072 108.5,92.5C 108.739,94.4672 108.406,96.3005 107.5,98C 105.892,98.658 104.725,98.158 104,96.5C 102.989,97.3366 101.822,97.67 100.5,97.5C 100.5,96.5 100.5,95.5 100.5,94.5 Z"/></g>
<g><path style="opacity:1" fill="#d99797" d="M 153.5,96.5 C 154.649,96.7911 155.316,97.6244 155.5,99C 155.576,101.756 154.243,102.923 151.5,102.5C 151.604,100.297 152.27,98.2972 153.5,96.5 Z"/></g>
<g><path style="opacity:1" fill="#d19292" d="M 157.5,96.5 C 158.5,96.5 159.5,96.5 160.5,96.5C 160.662,98.5273 160.495,100.527 160,102.5C 157.605,103.798 156.438,102.965 156.5,100C 156.648,98.7441 156.982,97.5774 157.5,96.5 Z"/></g>
<g><path style="opacity:1" fill="#d99797" d="M 162.5,97.5 C 163.5,97.5 164.5,97.5 165.5,97.5C 165.5,99.1667 165.5,100.833 165.5,102.5C 164.5,102.5 163.5,102.5 162.5,102.5C 162.5,100.833 162.5,99.1667 162.5,97.5 Z"/></g>
<g><path style="opacity:1" fill="#fdca8c" d="M 117.5,109.5 C 133.301,107.153 146.468,111.82 157,123.5C 157.667,125.167 157.667,126.833 157,128.5C 150.363,135.438 142.197,138.771 132.5,138.5C 123.194,136.341 113.861,134.174 104.5,132C 95.9651,124.618 96.6318,118.285 106.5,113C 110.161,111.407 113.828,110.241 117.5,109.5 Z"/></g>
<g><path style="opacity:1" fill="#8e8e8e" d="M 46.5,110.5 C 45.5,111.167 44.5,111.833 43.5,112.5C 41.5,112.5 39.5,112.5 37.5,112.5C 37.6107,111.883 37.944,111.383 38.5,111C 41.146,110.503 43.8127,110.336 46.5,110.5 Z"/></g>
<g><path style="opacity:1" fill="#434343" d="M 247.5,174.5 C 237.795,180.026 228.462,186.192 219.5,193C 211.359,196.994 203.359,201.161 195.5,205.5C 195.029,196.67 194.362,188.004 193.5,179.5C 193.5,170.5 193.5,161.5 193.5,152.5C 212.662,153.46 230.329,148.96 246.5,139C 255.029,136.931 259.695,140.264 260.5,149C 258.66,158.847 254.327,167.347 247.5,174.5 Z"/></g>
<g><path style="opacity:1" fill="#434343" d="M 199.5,246.5 C 198.179,240.703 196.346,235.037 194,229.5C 192.35,223.581 191.683,217.581 192,211.5C 202.166,204.167 212.999,198 224.5,193C 233.409,187.057 242.076,180.89 250.5,174.5C 255.092,172.948 259.592,171.281 264,169.5C 267.033,169.519 269.367,170.852 271,173.5C 275.195,190.086 280.195,206.419 286,222.5C 286.755,225.303 286.422,227.97 285,230.5C 260.223,244.281 236.223,259.281 213,275.5C 210.277,272.443 207.944,269.11 206,265.5C 203.924,259.106 201.758,252.773 199.5,246.5 Z"/></g>
<g><path style="opacity:1" fill="#fefefe" d="M 270.5,197.5 C 269.835,200.649 269.502,203.982 269.5,207.5C 269.321,212.501 269.987,217.334 271.5,222C 270.671,223.816 269.837,225.649 269,227.5C 264.631,232.037 260.131,236.37 255.5,240.5C 242.907,249.474 229.907,257.974 216.5,266C 215.207,266.49 213.873,266.657 212.5,266.5C 210.416,257.414 207.25,248.747 203,240.5C 201.408,233.057 199.408,225.724 197,218.5C 196.333,216.167 196.333,213.833 197,211.5C 205.688,207.463 213.855,202.63 221.5,197C 235.621,190.369 249.621,183.536 263.5,176.5C 264.086,176.709 264.586,177.043 265,177.5C 267.149,184.098 268.982,190.764 270.5,197.5 Z"/></g>
<g><path style="opacity:1" fill="#dbdbdb" d="M 247.5,174.5 C 248.5,174.5 249.5,174.5 250.5,174.5C 242.076,180.89 233.409,187.057 224.5,193C 212.999,198 202.166,204.167 192,211.5C 191.683,217.581 192.35,223.581 194,229.5C 196.346,235.037 198.179,240.703 199.5,246.5C 198.833,246.833 198.167,247.167 197.5,247.5C 191.835,236.173 189.002,224.173 189,211.5C 190.039,210.29 191.206,209.29 192.5,208.5C 193.314,206.369 193.814,204.036 194,201.5C 194.21,203.058 194.71,204.391 195.5,205.5C 203.359,201.161 211.359,196.994 219.5,193C 228.462,186.192 237.795,180.026 247.5,174.5 Z"/></g>
<g><path style="opacity:1" fill="#bfc0bf" d="M 270.5,197.5 C 273.792,206.542 276.792,215.709 279.5,225C 279.167,225.833 278.833,226.667 278.5,227.5C 270.941,232.11 263.274,236.444 255.5,240.5C 260.131,236.37 264.631,232.037 269,227.5C 269.837,225.649 270.671,223.816 271.5,222C 269.987,217.334 269.321,212.501 269.5,207.5C 269.502,203.982 269.835,200.649 270.5,197.5 Z"/></g>
<g><path style="opacity:1" fill="#c9c9c9" d="M 193.5,179.5 C 194.362,188.004 195.029,196.67 195.5,205.5C 194.71,204.391 194.21,203.058 194,201.5C 193.814,204.036 193.314,206.369 192.5,208.5C 192.5,205.833 192.5,203.167 192.5,200.5C 193.491,193.687 193.825,186.687 193.5,179.5 Z"/></g>
<g><path style="opacity:1" fill="#424342" d="M 244.5,206.5 C 254.513,207.525 256.679,212.192 251,220.5C 250.261,221.574 249.261,222.241 248,222.5C 244.037,217.778 242.871,212.445 244.5,206.5 Z"/></g>
<g><path style="opacity:1" fill="#fefffe" d="M 245.5,209.5 C 252.52,210.905 253.354,214.239 248,219.5C 246.241,216.392 245.408,213.059 245.5,209.5 Z"/></g>
<g><path style="opacity:1" fill="#424342" d="M 232.5,213.5 C 237.603,214.114 237.77,215.448 233,217.5C 232.333,219.833 232.333,222.167 233,224.5C 235.493,225.946 237.327,225.279 238.5,222.5C 237.833,221.833 237.167,221.167 236.5,220.5C 239.263,219.216 240.93,220.216 241.5,223.5C 237.604,230.044 233.771,230.044 230,223.5C 228.861,219.579 229.695,216.246 232.5,213.5 Z"/></g>
<g><path style="opacity:1" fill="#424342" d="M 220.5,218.5 C 222.103,218.312 223.437,218.812 224.5,220C 219.29,221.211 217.456,224.377 219,229.5C 221.447,231.749 223.947,231.916 226.5,230C 222.639,228.343 222.639,226.843 226.5,225.5C 230.494,228.722 230.161,231.555 225.5,234C 216.45,234.953 213.283,231.12 216,222.5C 217.397,220.93 218.897,219.596 220.5,218.5 Z"/></g>
</svg>
