<?xml version="1.0" encoding="UTF-8"?>
<!DOCTYPE svg PUBLIC "-//W3C//DTD SVG 1.1//EN" "http://www.w3.org/Graphics/SVG/1.1/DTD/svg11.dtd">
<svg xmlns="http://www.w3.org/2000/svg" version="1.1" width="300px" height="300px" style="shape-rendering:geometricPrecision; text-rendering:geometricPrecision; image-rendering:optimizeQuality; fill-rule:evenodd; clip-rule:evenodd" xmlns:xlink="http://www.w3.org/1999/xlink">
<g><path style="opacity:1" fill="#433728" d="M 66.5,24.5 C 65.6618,24.8417 65.3284,25.5084 65.5,26.5C 64.7671,23.3549 63.7671,20.1882 62.5,17C 58.999,16.9043 55.6657,17.4043 52.5,18.5C 44.8261,18.3336 37.1594,18.5003 29.5,19C 28.3313,21.0065 27.6646,23.1732 27.5,25.5C 26.8826,25.6107 26.3826,25.944 26,26.5C 25.5034,28.8098 25.3367,31.1432 25.5,33.5C 24.8333,32.1667 24.1667,30.8333 23.5,29.5C 21.9699,27.6535 19.9699,26.6535 17.5,26.5C 18.8333,25.8333 20.1667,25.1667 21.5,24.5C 22.7498,24.5774 23.5831,25.244 24,26.5C 25.5774,23.0092 27.0774,19.5092 28.5,16C 33.8173,15.9059 39.1507,16.0726 44.5,16.5C 50.2517,16.5325 55.9184,15.8658 61.5,14.5C 62.4419,14.6082 63.2753,14.9415 64,15.5C 65.5489,18.3117 66.3822,21.3117 66.5,24.5 Z"/></g>
<g><path style="opacity:1" fill="#fccb8e" d="M 52.5,18.5 C 55.8333,18.5 59.1667,18.5 62.5,18.5C 62.0024,21.0103 61.3357,23.5103 60.5,26C 61.12,30.8201 61.62,35.6534 62,40.5C 62.5166,36.0629 63.6833,32.0629 65.5,28.5C 66.2341,37.4426 65.0675,46.1093 62,54.5C 61.6174,55.056 61.1174,55.3893 60.5,55.5C 58.3115,53.493 55.6448,52.493 52.5,52.5C 52.9984,55.6808 52.1651,58.3475 50,60.5C 50.0693,55.9205 48.5693,54.9205 45.5,57.5C 44.5853,56.6721 43.9186,55.6721 43.5,54.5C 44.2739,53.2888 45.1072,53.2888 46,54.5C 46.7028,52.2199 47.8694,50.2199 49.5,48.5C 47.8333,47.1667 46.1667,47.1667 44.5,48.5C 43.5,49.8333 42.5,51.1667 41.5,52.5C 39.7996,48.7731 37.7996,45.1064 35.5,41.5C 34.4718,39.4197 33.1385,39.0864 31.5,40.5C 31.5,39.8333 31.5,39.1667 31.5,38.5C 31.6309,37.6236 31.2975,36.9569 30.5,36.5C 29.7189,37.7287 29.2189,39.062 29,40.5C 27.5339,35.4703 27.0339,30.4703 27.5,25.5C 27.6646,23.1732 28.3313,21.0065 29.5,19C 37.1594,18.5003 44.8261,18.3336 52.5,18.5 Z"/></g>
<g><path style="opacity:1" fill="#f3dab2" d="M 65.5,26.5 C 65.5,27.1667 65.5,27.8333 65.5,28.5C 63.6833,32.0629 62.5166,36.0629 62,40.5C 61.62,35.6534 61.12,30.8201 60.5,26C 61.3357,23.5103 62.0024,21.0103 62.5,18.5C 59.1667,18.5 55.8333,18.5 52.5,18.5C 55.6657,17.4043 58.999,16.9043 62.5,17C 63.7671,20.1882 64.7671,23.3549 65.5,26.5 Z"/></g>
<g><path style="opacity:0.992" fill="#474039" d="M 59.5,63.5 C 57.623,62.3754 55.7897,62.7088 54,64.5C 53.8299,70.1958 53.3299,75.8624 52.5,81.5C 50.0177,80.9329 47.6843,80.2663 45.5,79.5C 47.7925,79.7564 49.9592,79.4231 52,78.5C 52.1637,73.8214 52.1637,69.1547 52,64.5C 55.7142,62.2871 58.5475,59.2871 60.5,55.5C 61.1174,55.3893 61.6174,55.056 62,54.5C 65.0675,46.1093 66.2341,37.4426 65.5,28.5C 65.5,27.8333 65.5,27.1667 65.5,26.5C 65.3284,25.5084 65.6618,24.8417 66.5,24.5C 86.8004,20.3208 93.6337,28.3208 87,48.5C 80.2369,58.4564 71.0702,63.4564 59.5,63.5 Z M 71.5,31.5 C 73.5,31.5 75.5,31.5 77.5,31.5C 77.7454,38.6708 75.0787,44.3374 69.5,48.5C 69.9453,43.7202 69.9453,38.8868 69.5,34C 70.3805,33.2917 71.0472,32.4584 71.5,31.5 Z"/></g>
<g><path style="opacity:1" fill="#e9c398" d="M 74.5,23.5 C 77.0236,24.9269 79.6902,26.0936 82.5,27C 83.7014,27.9025 84.5348,29.0692 85,30.5C 87.1771,42.6501 82.6771,51.1501 71.5,56C 69.1703,57.3454 66.8369,57.5121 64.5,56.5C 67.6262,54.0979 70.9595,51.9312 74.5,50C 80.2799,44.2225 81.9466,37.3891 79.5,29.5C 75.8661,28.4893 72.1994,28.4893 68.5,29.5C 69.4872,26.5128 71.4872,24.5128 74.5,23.5 Z"/></g>
<g><path style="opacity:1" fill="#eac59b" d="M 17.5,26.5 C 19.9699,26.6535 21.9699,27.6535 23.5,29.5C 14.723,31.0511 12.223,36.0511 16,44.5C 19.026,47.0263 22.1927,49.3596 25.5,51.5C 26.3857,52.325 26.719,53.325 26.5,54.5C 19.8481,54.4243 15.0148,51.4243 12,45.5C 8.76265,37.5603 10.596,31.227 17.5,26.5 Z"/></g>
<g><path style="opacity:1" fill="#f6cb95" d="M 27.5,25.5 C 27.0339,30.4703 27.5339,35.4703 29,40.5C 29.2189,39.062 29.7189,37.7287 30.5,36.5C 31.2975,36.9569 31.6309,37.6236 31.5,38.5C 30.1473,42.556 30.6473,46.556 33,50.5C 36.0784,55.6019 40.2451,59.1019 45.5,61C 42.3821,56.2139 38.8821,51.7139 35,47.5C 33.295,45.4234 32.1283,43.09 31.5,40.5C 33.1385,39.0864 34.4718,39.4197 35.5,41.5C 37.7996,45.1064 39.7996,48.7731 41.5,52.5C 42.5,51.1667 43.5,49.8333 44.5,48.5C 46.1667,47.1667 47.8333,47.1667 49.5,48.5C 47.8694,50.2199 46.7028,52.2199 46,54.5C 45.1072,53.2888 44.2739,53.2888 43.5,54.5C 43.9186,55.6721 44.5853,56.6721 45.5,57.5C 48.5693,54.9205 50.0693,55.9205 50,60.5C 52.1651,58.3475 52.9984,55.6808 52.5,52.5C 55.6448,52.493 58.3115,53.493 60.5,55.5C 58.5475,59.2871 55.7142,62.2871 52,64.5C 52.1637,69.1547 52.1637,73.8214 52,78.5C 49.9592,79.4231 47.7925,79.7564 45.5,79.5C 47.3263,69.9452 43.993,63.1119 35.5,59C 28.7569,51.881 25.4236,43.381 25.5,33.5C 25.3367,31.1432 25.5034,28.8098 26,26.5C 26.3826,25.944 26.8826,25.6107 27.5,25.5 Z"/></g>
<g><path style="opacity:1" fill="#be9f6f" d="M 31.5,38.5 C 31.5,39.1667 31.5,39.8333 31.5,40.5C 32.1283,43.09 33.295,45.4234 35,47.5C 38.8821,51.7139 42.3821,56.2139 45.5,61C 40.2451,59.1019 36.0784,55.6019 33,50.5C 30.6473,46.556 30.1473,42.556 31.5,38.5 Z"/></g>
<g><path style="opacity:0.973" fill="#47403a" d="M 21.5,24.5 C 20.1667,25.1667 18.8333,25.8333 17.5,26.5C 10.596,31.227 8.76265,37.5603 12,45.5C 15.0148,51.4243 19.8481,54.4243 26.5,54.5C 26.719,53.325 26.3857,52.325 25.5,51.5C 22.1927,49.3596 19.026,47.0263 16,44.5C 12.223,36.0511 14.723,31.0511 23.5,29.5C 24.1667,30.8333 24.8333,32.1667 25.5,33.5C 25.4236,43.381 28.7569,51.881 35.5,59C 43.993,63.1119 47.3263,69.9452 45.5,79.5C 44.6746,76.6282 43.8412,73.6282 43,70.5C 42.8138,73.0356 42.3138,75.369 41.5,77.5C 41.6488,74.3926 41.1488,71.3926 40,68.5C 36.7959,65.6312 33.9626,62.4646 31.5,59C 26.7379,58.0328 22.0712,56.6994 17.5,55C 14.2792,51.7792 11.1126,48.6126 8,45.5C 4.76689,36.1941 7.26689,29.0275 15.5,24C 17.7116,23.2109 19.7116,23.3775 21.5,24.5 Z M 22.5,31.5 C 23.4824,35.3164 24.1491,39.3164 24.5,43.5C 18.9774,43.4381 17.144,40.7714 19,35.5C 19.6897,33.6498 20.8564,32.3164 22.5,31.5 Z"/></g>
<g><path style="opacity:1" fill="#414141" d="M 191.5,210.5 C 190.167,210.5 189.5,211.167 189.5,212.5C 188.351,212.791 187.684,213.624 187.5,215C 187.701,217.111 188.367,218.945 189.5,220.5C 189.5,221.167 189.5,221.833 189.5,222.5C 189.597,225.594 190.597,228.26 192.5,230.5C 193.536,236.285 195.536,241.618 198.5,246.5C 196.372,247.629 194.039,247.796 191.5,247C 185.206,245.568 179.039,243.735 173,241.5C 169.446,241.961 166.28,243.294 163.5,245.5C 167.572,256.144 172.572,266.31 178.5,276C 181.167,276.333 183.833,276.667 186.5,277C 189.167,279 189.167,281 186.5,283C 181.725,284.159 177.392,283.326 173.5,280.5C 167.578,269.657 161.911,258.657 156.5,247.5C 145.615,247.59 134.615,247.424 123.5,247C 118.012,246.504 112.845,245.004 108,242.5C 103.433,250.363 99.9329,258.696 97.5,267.5C 98.7345,269.398 98.4011,271.065 96.5,272.5C 90.5937,274.215 84.5937,275.548 78.5,276.5C 74.2784,275.339 73.6117,273.172 76.5,270C 81.2644,269.152 85.9311,267.985 90.5,266.5C 93.3797,256.862 97.0464,247.528 101.5,238.5C 98.8333,235.5 96.1667,232.5 93.5,229.5C 82.5299,232.049 73.0299,229.383 65,221.5C 63.2229,218.28 61.7229,214.947 60.5,211.5C 46.217,206.609 39.717,196.609 41,181.5C 41.7848,178.471 42.9515,175.638 44.5,173C 30.3648,154.663 28.0315,134.829 37.5,113.5C 31.1558,113.979 27.8224,111.145 27.5,105C 28.6382,96.9474 30.6382,89.114 33.5,81.5C 36.4412,80.3869 39.1079,79.0536 41.5,77.5C 42.3138,75.369 42.8138,73.0356 43,70.5C 43.8412,73.6282 44.6746,76.6282 45.5,79.5C 47.6843,80.2663 50.0177,80.9329 52.5,81.5C 53.3299,75.8624 53.8299,70.1958 54,64.5C 55.7897,62.7088 57.623,62.3754 59.5,63.5C 57.0676,65.058 55.7343,67.3913 55.5,70.5C 56.3022,73.4486 56.6355,76.4486 56.5,79.5C 59.9297,79.1065 63.0964,79.7732 66,81.5C 69.0337,88.9358 71.867,96.4358 74.5,104C 74.2971,106.406 73.2971,108.406 71.5,110C 67.8333,110.333 64.1667,110.667 60.5,111C 68.6578,123.833 78.3245,135.5 89.5,146C 93.091,148.805 97.091,149.805 101.5,149C 84.5585,131.198 84.2252,113.031 100.5,94.5C 107.607,84.5747 116.94,77.408 128.5,73C 131.562,72.2585 134.562,72.4252 137.5,73.5C 140.873,66.5818 144.873,60.0818 149.5,54C 153.053,51.5174 156.719,51.184 160.5,53C 152.842,56.8071 146.508,62.9737 141.5,71.5C 141.709,72.086 142.043,72.586 142.5,73C 144.5,73.6667 146.5,73.6667 148.5,73C 153.159,68.9948 158.493,67.3281 164.5,68C 167.939,69.2022 169.273,71.3689 168.5,74.5C 164.612,70.128 159.946,69.2947 154.5,72C 152.884,72.6152 151.551,73.6152 150.5,75C 166.866,80.0322 177.033,90.8656 181,107.5C 184.047,115.366 184.714,123.366 183,131.5C 179.024,136.977 174.858,142.31 170.5,147.5C 171.714,149.069 173.381,149.902 175.5,150C 180.806,151.067 186.139,151.901 191.5,152.5C 190.458,170.046 191.125,187.546 193.5,205C 193.242,207.009 192.575,208.843 191.5,210.5 Z"/></g>
<g><path style="opacity:1" fill="#48443c" d="M 154.5,119.5 C 150.222,117.023 145.888,114.523 141.5,112C 127.629,107.804 114.295,108.971 101.5,115.5C 102.125,112.03 101.125,109.196 98.5,107C 103.022,106.951 107.356,106.118 111.5,104.5C 114.123,106.654 116.956,107.321 120,106.5C 124.12,107.924 128.287,108.258 132.5,107.5C 130.955,106.548 129.288,106.215 127.5,106.5C 127.5,105.5 127.5,104.5 127.5,103.5C 131.635,103.679 135.635,104.345 139.5,105.5C 141.641,105.387 143.475,104.72 145,103.5C 145.498,106.482 145.665,109.482 145.5,112.5C 147.806,112.007 150.139,111.674 152.5,111.5C 152.56,114.341 153.226,117.007 154.5,119.5 Z"/></g>
<g><path style="opacity:1" fill="#c99ca2" d="M 162.5,97.5 C 163.5,97.5 164.5,97.5 165.5,97.5C 165.5,99.1667 165.5,100.833 165.5,102.5C 164.5,102.5 163.5,102.5 162.5,102.5C 162.5,100.833 162.5,99.1667 162.5,97.5 Z"/></g>
<g><path style="opacity:1" fill="#cba0a2" d="M 153.5,96.5 C 154.649,96.7911 155.316,97.6244 155.5,99C 155.576,101.756 154.243,102.923 151.5,102.5C 151.604,100.297 152.27,98.2972 153.5,96.5 Z"/></g>
<g><path style="opacity:1" fill="#c09494" d="M 157.5,96.5 C 158.5,96.5 159.5,96.5 160.5,96.5C 160.662,98.5273 160.495,100.527 160,102.5C 157.605,103.798 156.438,102.965 156.5,100C 156.648,98.7441 156.982,97.5774 157.5,96.5 Z"/></g>
<g><path style="opacity:1" fill="#c79091" d="M 100.5,94.5 C 103.357,91.7149 106.024,91.8815 108.5,95C 108.355,95.772 108.022,96.4387 107.5,97C 105.19,97.4966 102.857,97.6633 100.5,97.5C 100.5,96.5 100.5,95.5 100.5,94.5 Z"/></g>
<g><path style="opacity:1" fill="#f5ca96" d="M 154.5,119.5 C 155.71,121.552 156.71,123.718 157.5,126C 157.137,128.192 156.137,130.026 154.5,131.5C 152.938,131.733 151.605,132.4 150.5,133.5C 145.098,136.858 139.098,138.524 132.5,138.5C 123.058,136.854 113.725,134.687 104.5,132C 97.8248,127.396 96.8248,121.896 101.5,115.5C 114.295,108.971 127.629,107.804 141.5,112C 145.888,114.523 150.222,117.023 154.5,119.5 Z"/></g>
<g><path style="opacity:1" fill="#fdcb8c" d="M 150.5,133.5 C 142.033,131.468 133.533,131.135 125,132.5C 121.354,130.273 117.521,129.94 113.5,131.5C 109.743,130.948 109.743,129.948 113.5,128.5C 112.667,128.167 111.833,127.833 111,127.5C 109.072,127.933 107.239,128.6 105.5,129.5C 102.918,129.253 102.085,127.92 103,125.5C 104.545,126.821 105.711,126.488 106.5,124.5C 103.44,122.981 101.94,120.648 102,117.5C 104.908,115.975 108.074,114.975 111.5,114.5C 111.291,113.914 110.957,113.414 110.5,113C 119.279,109.871 127.946,109.871 136.5,113C 138.174,114.506 139.174,116.339 139.5,118.5C 141.912,118.244 143.579,119.244 144.5,121.5C 145.289,116.947 146.956,116.447 149.5,120C 148.115,121.597 147.449,123.43 147.5,125.5C 150.794,126.053 152.46,125.053 152.5,122.5C 156.822,126.545 156.156,129.212 150.5,130.5C 150.5,131.5 150.5,132.5 150.5,133.5 Z"/></g>
<g><path style="opacity:1" fill="#4e4539" d="M 101.5,115.5 C 96.8248,121.896 97.8248,127.396 104.5,132C 113.725,134.687 123.058,136.854 132.5,138.5C 139.098,138.524 145.098,136.858 150.5,133.5C 151.605,132.4 152.938,131.733 154.5,131.5C 152.06,135.77 148.393,138.27 143.5,139C 132.319,138.885 121.319,139.718 110.5,141.5C 108.276,140.919 107.443,139.586 108,137.5C 109.507,138.535 111.007,138.368 112.5,137C 109.678,135.227 106.845,135.394 104,137.5C 101.03,136.978 100.196,135.478 101.5,133C 98.6543,129.871 96.6543,126.205 95.5,122C 96.7131,120.37 97.5464,118.536 98,116.5C 99.0113,115.663 100.178,115.33 101.5,115.5 Z"/></g>
<g><path style="opacity:0.998" fill="#424242" d="M 236.5,182.5 C 230.264,184.958 224.597,188.458 219.5,193C 212.342,196.412 205.342,200.078 198.5,204C 197.748,204.671 197.414,205.504 197.5,206.5C 196.85,206.196 196.183,205.863 195.5,205.5C 194.686,203.234 194.186,200.9 194,198.5C 193.693,183.154 193.193,167.821 192.5,152.5C 212.017,153.621 230.017,149.121 246.5,139C 255.029,136.931 259.695,140.264 260.5,149C 259.263,155.977 256.763,162.477 253,168.5C 248.078,174.016 242.578,178.682 236.5,182.5 Z"/></g>
<g><path style="opacity:1" fill="#d9d9d9" d="M 236.5,182.5 C 236.5,182.833 236.5,183.167 236.5,183.5C 232.821,186.868 228.821,190.035 224.5,193C 217.379,196.061 210.379,199.394 203.5,203C 201.34,204.332 199.34,205.832 197.5,207.5C 197.5,207.167 197.5,206.833 197.5,206.5C 197.414,205.504 197.748,204.671 198.5,204C 205.342,200.078 212.342,196.412 219.5,193C 224.597,188.458 230.264,184.958 236.5,182.5 Z"/></g>
<g><path style="opacity:1" fill="#aaa8a9" d="M 191.5,211.5 C 191.5,213.833 191.5,216.167 191.5,218.5C 189.797,217.34 189.131,218.007 189.5,220.5C 188.367,218.945 187.701,217.111 187.5,215C 187.684,213.624 188.351,212.791 189.5,212.5C 189.435,212.938 189.601,213.272 190,213.5C 190.278,212.584 190.778,211.918 191.5,211.5 Z"/></g>
<g><path style="opacity:1" fill="#e1dedf" d="M 191.5,218.5 C 192.301,220.042 192.634,221.708 192.5,223.5C 192.44,224.043 192.107,224.376 191.5,224.5C 190.818,223.757 190.151,223.091 189.5,222.5C 189.5,221.833 189.5,221.167 189.5,220.5C 189.131,218.007 189.797,217.34 191.5,218.5 Z"/></g>
<g><path style="opacity:0.69" fill="#898586" d="M 189.5,222.5 C 190.151,223.091 190.818,223.757 191.5,224.5C 192.107,224.376 192.44,224.043 192.5,223.5C 193.38,225.137 194.046,226.97 194.5,229C 194.43,229.765 194.097,230.265 193.5,230.5C 193.167,230.5 192.833,230.5 192.5,230.5C 190.597,228.26 189.597,225.594 189.5,222.5 Z"/></g>
<g><path style="opacity:1" fill="#403f40" d="M 198.5,246.5 C 197.232,241.03 195.565,235.696 193.5,230.5C 194.097,230.265 194.43,229.765 194.5,229C 194.046,226.97 193.38,225.137 192.5,223.5C 192.634,221.708 192.301,220.042 191.5,218.5C 191.5,216.167 191.5,213.833 191.5,211.5C 191.5,211.167 191.5,210.833 191.5,210.5C 193.483,209.529 195.483,208.529 197.5,207.5C 199.34,205.832 201.34,204.332 203.5,203C 210.379,199.394 217.379,196.061 224.5,193C 228.821,190.035 232.821,186.868 236.5,183.5C 244.051,178.224 252.051,173.724 260.5,170C 264.898,168.622 268.398,169.788 271,173.5C 275.195,190.086 280.195,206.419 286,222.5C 286.755,225.303 286.422,227.97 285,230.5C 260.223,244.281 236.223,259.281 213,275.5C 211.333,273.5 209.667,271.5 208,269.5C 205.1,261.612 201.934,253.945 198.5,246.5 Z"/></g>
<g><path style="opacity:1" fill="#bfbfbf" d="M 270.5,197.5 C 273.792,206.542 276.792,215.709 279.5,225C 279.167,225.833 278.833,226.667 278.5,227.5C 270.941,232.11 263.274,236.444 255.5,240.5C 260.131,236.37 264.631,232.037 269,227.5C 269.837,225.649 270.671,223.816 271.5,222C 269.987,217.334 269.321,212.501 269.5,207.5C 269.502,203.982 269.835,200.649 270.5,197.5 Z"/></g>
<g><path style="opacity:1" fill="#fefefe" d="M 270.5,197.5 C 269.835,200.649 269.502,203.982 269.5,207.5C 269.321,212.501 269.987,217.334 271.5,222C 270.671,223.816 269.837,225.649 269,227.5C 264.631,232.037 260.131,236.37 255.5,240.5C 242.907,249.474 229.907,257.974 216.5,266C 215.207,266.49 213.873,266.657 212.5,266.5C 210.416,257.414 207.25,248.747 203,240.5C 201.408,233.057 199.408,225.724 197,218.5C 196.333,216.167 196.333,213.833 197,211.5C 205.688,207.463 213.855,202.63 221.5,197C 235.621,190.369 249.621,183.536 263.5,176.5C 264.086,176.709 264.586,177.043 265,177.5C 267.149,184.098 268.982,190.764 270.5,197.5 Z"/></g>
<g><path style="opacity:1" fill="#434343" d="M 220.5,218.5 C 222.103,218.312 223.437,218.812 224.5,220C 219.29,221.211 217.456,224.377 219,229.5C 221.447,231.749 223.947,231.916 226.5,230C 222.639,228.343 222.639,226.843 226.5,225.5C 230.494,228.722 230.161,231.555 225.5,234C 216.45,234.953 213.283,231.12 216,222.5C 217.397,220.93 218.897,219.596 220.5,218.5 Z"/></g>
<g><path style="opacity:1" fill="#434343" d="M 232.5,213.5 C 237.603,214.114 237.77,215.448 233,217.5C 232.333,219.833 232.333,222.167 233,224.5C 235.493,225.946 237.327,225.279 238.5,222.5C 237.833,221.833 237.167,221.167 236.5,220.5C 239.263,219.216 240.93,220.216 241.5,223.5C 237.604,230.044 233.771,230.044 230,223.5C 228.861,219.579 229.695,216.246 232.5,213.5 Z"/></g>
<g><path style="opacity:1" fill="#424242" d="M 244.5,206.5 C 254.513,207.525 256.679,212.192 251,220.5C 250.261,221.574 249.261,222.241 248,222.5C 244.037,217.778 242.871,212.445 244.5,206.5 Z"/></g>
<g><path style="opacity:1" fill="#fdfdfd" d="M 245.5,209.5 C 252.52,210.905 253.354,214.239 248,219.5C 246.241,216.392 245.408,213.059 245.5,209.5 Z"/></g>
</svg>
