<?xml version="1.0" standalone="no"?>
<!DOCTYPE svg PUBLIC "-//W3C//DTD SVG 20010904//EN"
 "http://www.w3.org/TR/2001/REC-SVG-20010904/DTD/svg10.dtd">
<svg version="1.0" xmlns="http://www.w3.org/2000/svg"
 width="767.000000pt" height="696.000000pt" viewBox="0 0 767.000000 696.000000"
 preserveAspectRatio="xMidYMid meet">

<g transform="translate(0.000000,696.000000) scale(0.100000,-0.100000)"
fill="#000000" stroke="none">
<path d="M3641 5425 c-22 -30 -41 -61 -41 -70 0 -11 -10 -6 -35 16 -19 18 -33
35 -30 38 2 4 -8 7 -23 6 -41 0 -33 -18 31 -70 l57 -47 2 -112 c2 -122 2 -133
-3 -253 -2 -46 -5 -83 -7 -83 -13 0 -50 34 -47 43 2 7 6 33 9 60 5 41 3 47
-13 47 -20 0 -31 -26 -31 -74 0 -28 -1 -28 -18 -13 -10 10 -26 17 -35 17 -38
0 -22 -21 53 -68 l80 -51 0 -101 c0 -93 1 -100 20 -100 18 0 20 7 20 60 l0 61
78 36 c93 44 88 41 74 55 -9 9 -21 8 -49 -6 -21 -10 -53 -25 -71 -33 l-33 -14
2 86 c1 55 6 89 15 96 7 5 64 17 126 25 166 20 178 23 178 39 0 8 -4 15 -9 15
-12 0 -156 -19 -200 -26 -33 -5 -31 -3 40 55 41 34 74 66 74 73 0 25 -22 16
-74 -29 l-53 -47 7 35 c4 19 9 44 12 57 4 17 1 22 -15 22 -17 0 -22 -11 -32
-67 -11 -59 -39 -113 -59 -113 -3 0 -4 82 -1 182 l5 183 37 57 c31 46 35 57
22 62 -9 3 -17 6 -19 6 -1 0 -21 -25 -44 -55z"/>
<path d="M3800 5476 c0 -2 7 -7 16 -10 8 -3 12 -2 9 4 -6 10 -25 14 -25 6z"/>
<path d="M3610 5455 c-14 -8 -20 -14 -14 -15 5 0 19 7 30 15 24 18 16 19 -16
0z"/>
<path d="M3907 5419 c7 -7 15 -10 18 -7 3 3 -2 9 -12 12 -14 6 -15 5 -6 -5z"/>
<path d="M3940 5406 c0 -3 9 -10 20 -16 11 -6 20 -8 20 -6 0 3 -9 10 -20 16
-11 6 -20 8 -20 6z"/>
<path d="M5392 5323 c-22 -49 -42 -96 -44 -107 -2 -14 -14 -4 -51 43 -39 50
-52 60 -63 50 -11 -9 -2 -25 50 -88 l64 -77 1 -209 c0 -116 0 -271 -2 -346
l-1 -137 -28 22 c-25 19 -27 26 -23 66 3 25 6 68 7 95 2 44 0 50 -17 50 -18 0
-20 -8 -23 -72 -3 -76 -9 -86 -30 -53 -7 11 -19 20 -26 20 -37 0 -23 -28 53
-104 l81 -81 0 -148 c0 -140 1 -147 20 -147 19 0 20 7 20 93 l0 92 85 56 c78
51 84 57 71 74 -12 17 -17 16 -78 -28 -36 -26 -68 -47 -72 -47 -3 0 -6 58 -6
128 0 112 2 131 18 146 19 17 153 49 255 61 47 5 57 10 57 25 0 10 -3 21 -7
23 -7 4 -146 -19 -233 -38 -14 -3 -20 -2 -15 2 6 4 46 50 89 102 70 83 77 95
63 108 -13 14 -21 8 -67 -51 -29 -37 -54 -65 -56 -63 -3 2 1 37 8 76 11 62 10
74 -2 81 -25 16 -27 12 -34 -57 -14 -142 -18 -160 -45 -191 l-26 -31 3 277 2
277 36 83 c33 77 38 112 16 112 -5 0 -27 -39 -50 -87z"/>
<path d="M4010 5366 c0 -2 7 -7 16 -10 8 -3 12 -2 9 4 -6 10 -25 14 -25 6z"/>
<path d="M3335 5320 c-3 -6 1 -7 9 -4 18 7 21 14 7 14 -6 0 -13 -4 -16 -10z"/>
<path d="M4090 5326 c0 -3 9 -10 20 -16 11 -6 20 -8 20 -6 0 3 -9 10 -20 16
-11 6 -20 8 -20 6z"/>
<path d="M3042 5266 c-18 -24 -32 -52 -32 -61 0 -13 -11 -9 -46 20 -27 23 -49
34 -55 28 -5 -5 11 -24 40 -47 l49 -39 4 -107 c2 -60 2 -144 0 -189 -4 -77 -5
-80 -24 -70 -17 9 -19 17 -13 58 5 38 3 50 -8 54 -17 6 -27 -12 -27 -49 0 -13
-2 -24 -4 -24 -3 0 -41 23 -86 52 -56 36 -84 48 -91 41 -8 -8 -2 -16 20 -29
17 -10 31 -21 31 -25 0 -3 -18 -9 -40 -13 -26 -4 -40 -11 -40 -21 0 -18 2 -18
67 -1 l51 14 81 -54 81 -54 0 -80 c0 -64 3 -80 15 -80 11 0 15 12 15 51 l0 50
65 30 c62 28 83 49 50 49 -9 0 -38 -11 -65 -25 l-50 -25 0 69 c0 43 5 72 13
79 9 8 207 42 242 42 3 0 5 7 5 15 0 12 -7 15 -32 10 -18 -3 -62 -9 -97 -14
-60 -8 -63 -7 -45 8 95 77 109 91 95 100 -10 6 -22 2 -40 -16 -14 -13 -34 -28
-43 -34 -15 -8 -15 -5 -6 27 7 28 7 39 -3 45 -20 12 -27 3 -34 -52 -4 -29 -16
-61 -29 -75 l-21 -25 2 152 c3 150 3 153 32 198 28 42 31 61 12 61 -4 0 -22
-20 -39 -44z"/>
<path d="M3275 5290 c-3 -6 1 -7 9 -4 18 7 21 14 7 14 -6 0 -13 -4 -16 -10z"/>
<path d="M4234 5246 c11 -9 24 -16 30 -16 12 0 7 5 -24 19 -24 11 -24 11 -6
-3z"/>
<path d="M3175 5240 c-3 -6 1 -7 9 -4 18 7 21 14 7 14 -6 0 -13 -4 -16 -10z"/>
<path d="M4280 5226 c0 -3 14 -12 30 -21 17 -9 30 -13 30 -11 0 3 -13 12 -30
21 -16 9 -30 13 -30 11z"/>
<path d="M3115 5210 c-3 -6 1 -7 9 -4 18 7 21 14 7 14 -6 0 -13 -4 -16 -10z"/>
<path d="M4410 5156 c0 -3 9 -10 20 -16 11 -6 20 -8 20 -6 0 3 -9 10 -20 16
-11 6 -20 8 -20 6z"/>
<path d="M2935 5120 c-3 -6 1 -7 9 -4 18 7 21 14 7 14 -6 0 -13 -4 -16 -10z"/>
<path d="M4460 5126 c0 -2 7 -7 16 -10 8 -3 12 -2 9 4 -6 10 -25 14 -25 6z"/>
<path d="M2895 5100 c-3 -6 1 -7 9 -4 18 7 21 14 7 14 -6 0 -13 -4 -16 -10z"/>
<path d="M2838 5074 c-38 -20 -36 -28 2 -9 17 9 30 18 30 20 0 7 -1 6 -32 -11z"/>
<path d="M4560 5075 c0 -2 23 -16 50 -30 28 -14 50 -23 50 -20 0 2 -22 16 -50
30 -27 14 -50 23 -50 20z"/>
<path d="M2750 5030 c-19 -11 -30 -19 -25 -19 6 0 26 8 45 19 19 11 31 19 25
19 -5 0 -26 -8 -45 -19z"/>
<path d="M5269 5035 c-5 -4 -1470 -731 -2108 -1045 l-234 -116 -266 132 c-146
72 -499 246 -783 387 l-518 256 0 -47 0 -48 508 -252 c279 -139 633 -315 787
-391 l279 -138 776 385 c426 212 957 474 1180 582 l404 197 3 51 c3 39 0 52
-10 52 -8 0 -16 -2 -18 -5z m-2339 -1235 c0 -5 -2 -10 -4 -10 -3 0 -8 5 -11
10 -3 6 -1 10 4 10 6 0 11 -4 11 -10z"/>
<path d="M4737 4979 c7 -7 15 -10 18 -7 3 3 -2 9 -12 12 -14 6 -15 5 -6 -5z"/>
<path d="M4435 4793 c-187 -95 -337 -172 -332 -172 7 -1 667 327 676 335 21
19 -50 -14 -344 -163z"/>
<path d="M2570 4940 c-19 -11 -30 -19 -25 -19 6 0 26 8 45 19 19 11 31 19 25
19 -5 0 -26 -8 -45 -19z"/>
<path d="M2490 4900 c-9 -6 -10 -10 -3 -10 6 0 15 5 18 10 8 12 4 12 -15 0z"/>
<path d="M2410 4860 c-30 -16 -51 -29 -47 -30 10 0 107 49 107 55 0 7 1 7 -60
-25z"/>
<path d="M5790 4855 c14 -8 30 -14 35 -14 6 0 -1 6 -15 14 -14 8 -29 14 -35
14 -5 0 1 -6 15 -14z"/>
<path d="M5093 4735 c0 -44 2 -61 4 -37 2 23 2 59 0 80 -2 20 -4 1 -4 -43z"/>
<path d="M5960 4780 c8 -5 20 -10 25 -10 6 0 3 5 -5 10 -8 5 -19 10 -25 10 -5
0 -3 -5 5 -10z"/>
<path d="M2230 4770 c-8 -5 -10 -10 -5 -10 6 0 17 5 25 10 8 5 11 10 5 10 -5
0 -17 -5 -25 -10z"/>
<path d="M2170 4740 c-19 -11 -31 -19 -27 -20 11 0 67 29 67 35 0 7 -1 7 -40
-15z"/>
<path d="M2110 4710 c-9 -6 -10 -10 -3 -10 6 0 15 5 18 10 8 12 4 12 -15 0z"/>
<path d="M2060 4685 c-14 -8 -20 -14 -14 -15 5 0 19 7 30 15 24 18 16 19 -16
0z"/>
<path d="M6210 4670 c8 -5 20 -10 25 -10 6 0 3 5 -5 10 -8 5 -19 10 -25 10 -5
0 -3 -5 5 -10z"/>
<path d="M2010 4660 c-9 -6 -10 -10 -3 -10 6 0 15 5 18 10 8 12 4 12 -15 0z"/>
<path d="M6515 4419 c-247 -133 -667 -358 -933 -500 -266 -143 -487 -259 -492
-259 -6 0 -10 16 -10 35 0 40 -1 40 -41 20 -16 -9 -33 -14 -37 -11 -4 2 -45
-16 -92 -40 -47 -23 -82 -43 -77 -43 4 -1 43 17 87 39 44 22 80 36 80 30 0 -5
-4 -10 -9 -10 -7 0 -458 -220 -1074 -523 -70 -35 -129 -61 -132 -59 -3 3 -5
169 -5 369 0 357 0 363 -20 363 -11 0 -128 -54 -260 -120 l-240 -120 0 -380 0
-380 -110 -55 c-60 -30 -114 -55 -118 -55 -11 0 -481 230 -1059 518 l-423 210
0 -81 0 -82 293 -146 c242 -121 346 -181 602 -344 171 -109 363 -233 428 -276
65 -44 124 -79 130 -79 14 0 30 10 414 256 265 170 339 212 672 379 206 103
386 191 400 196 23 8 24 8 9 -4 -10 -8 -14 -18 -10 -22 4 -5 2 -5 -5 -2 -6 4
-18 4 -27 1 -17 -6 0 -28 213 -267 90 -102 103 -121 99 -147 -4 -29 -4 -29 21
-14 83 49 83 63 -2 158 -38 42 -74 73 -79 69 -7 -3 -8 -1 -4 6 4 6 -31 54 -88
119 -53 59 -96 110 -96 114 0 4 18 17 39 28 l39 20 87 -100 c48 -55 92 -97 98
-93 6 4 7 1 2 -6 -9 -15 63 -93 78 -84 6 4 7 1 2 -6 -4 -8 5 -26 26 -47 28
-29 35 -32 48 -20 33 27 45 27 15 0 -18 -16 -34 -39 -37 -51 -5 -20 -3 -22 16
-12 37 20 57 41 57 63 0 13 -62 91 -160 204 l-161 182 47 20 c25 11 58 20 73
20 45 0 116 29 157 64 56 47 109 77 829 461 930 498 1189 637 1197 644 4 4 4
26 0 49 l-7 42 -450 -241z m-2805 -864 l0 -155 -180 -90 -180 -90 0 158 0 158
173 86 c94 48 175 87 180 87 4 1 7 -69 7 -154z m-6 -241 c38 -14 5 -71 -34
-59 -22 7 -27 34 -8 53 14 14 20 14 42 6z m906 -220 c0 -8 -19 -13 -24 -6 -3
5 1 9 9 9 8 0 15 -2 15 -3z m200 -211 c-12 -8 -24 -12 -27 -9 -3 3 2 8 11 12
9 3 13 10 10 15 -3 5 2 6 11 3 14 -6 13 -9 -5 -21z"/>
<path d="M6287 4639 c7 -7 15 -10 18 -7 3 3 -2 9 -12 12 -14 6 -15 5 -6 -5z"/>
<path d="M1900 4605 c-36 -19 -61 -34 -57 -35 10 0 127 59 127 65 0 7 2 8 -70
-30z"/>
<path d="M4003 4581 c-40 -20 -76 -40 -80 -44 -11 -12 150 62 162 74 16 16 -7
8 -82 -30z"/>
<path d="M6370 4600 c8 -5 20 -10 25 -10 6 0 3 5 -5 10 -8 5 -19 10 -25 10 -5
0 -3 -5 5 -10z"/>
<path d="M4772 4582 c-32 -16 -37 -32 -12 -40 8 -3 10 0 5 8 -5 9 -4 11 4 6 6
-4 9 -11 6 -16 -4 -7 55 -63 199 -190 16 -14 26 -19 21 -12 -4 8 2 23 16 38
12 13 21 25 18 27 -2 2 -44 38 -94 82 -143 126 -125 115 -163 97z"/>
<path d="M6458 4561 c-1 -5 -131 -78 -288 -162 -603 -323 -1064 -569 -1066
-569 -2 0 -5 12 -7 28 -3 22 -4 20 -6 -11 l-1 -37 53 29 c28 16 340 183 692
371 352 188 641 343 643 345 2 2 -1 6 -6 9 -6 3 -12 2 -14 -3z"/>
<path d="M1891 4556 c13 -13 1037 -516 1048 -515 7 0 -1039 519 -1047 519 -3
0 -3 -2 -1 -4z"/>
<path d="M3426 4295 c-435 -218 -520 -261 -456 -237 44 17 945 471 935 471 -5
0 -221 -106 -479 -234z"/>
<path d="M4603 4496 l-42 -21 60 -53 c34 -31 64 -50 70 -46 7 4 9 3 6 -3 -4
-6 44 -56 107 -112 113 -100 120 -103 171 -86 11 3 8 -1 -7 -9 -25 -15 -46
-52 -35 -63 11 -10 92 42 92 60 0 9 -3 16 -7 15 -3 -2 -16 9 -28 25 -12 15
-26 24 -32 21 -6 -4 -8 -2 -4 4 8 14 -172 174 -187 165 -5 -3 -7 -1 -4 4 4 6
-21 35 -56 66 l-62 55 -42 -22z m327 -241 c10 -13 10 -19 -5 -35 -21 -23 -36
-25 -53 -8 -9 9 -7 17 10 35 25 27 31 28 48 8z"/>
<path d="M5093 4460 c0 -30 2 -43 4 -27 2 15 2 39 0 55 -2 15 -4 2 -4 -28z"/>
<path d="M4426 4409 c-38 -20 -38 -21 -20 -38 53 -50 345 -301 350 -301 3 0 3
4 0 9 -3 5 12 11 34 13 41 4 40 -5 -2 -26 -22 -11 -39 -56 -21 -56 23 0 92 53
93 72 0 6 -385 348 -391 348 -2 -1 -21 -10 -43 -21z"/>
<path d="M5092 4380 c0 -14 2 -19 5 -12 2 6 2 18 0 25 -3 6 -5 1 -5 -13z"/>
<path d="M5037 4342 l-26 -27 48 -40 c43 -35 48 -44 43 -69 -3 -16 -1 -27 4
-24 5 2 24 11 42 19 19 8 35 23 39 37 8 32 0 35 -35 15 l-31 -18 -41 40 c-43
42 -50 62 -24 72 11 4 29 -7 56 -35 35 -38 58 -52 58 -37 0 6 -62 62 -90 82
-14 10 -21 8 -43 -15z"/>
<path d="M4243 4323 c-18 -9 -33 -19 -32 -22 0 -3 86 -80 190 -169 168 -145
188 -167 183 -188 -8 -30 0 -30 51 -1 69 39 65 46 -145 230 -105 92 -197 167
-203 166 -7 0 -27 -8 -44 -16z m207 -193 c0 -5 -5 -10 -11 -10 -5 0 -7 5 -4
10 3 6 8 10 11 10 2 0 4 -4 4 -10z m187 -137 c-16 -8 -31 -12 -35 -9 -3 3 0 6
7 6 7 0 10 3 8 8 -3 4 7 8 21 9 l27 1 -28 -15z"/>
<path d="M4072 4236 l-42 -22 34 -33 c21 -21 39 -30 47 -26 7 5 10 4 6 -2 -4
-6 60 -68 143 -139 132 -114 149 -132 146 -156 -1 -16 -1 -28 0 -28 19 0 95
48 100 63 3 10 4 19 2 21 -1 1 -41 36 -88 77 -47 41 -135 118 -195 171 l-110
96 -43 -22z m239 -243 c13 -16 12 -17 -3 -4 -17 13 -22 21 -14 21 2 0 10 -8
17 -17z m148 -86 c-2 -1 -13 -9 -24 -17 -19 -14 -19 -14 -6 3 7 9 18 17 24 17
6 0 8 -1 6 -3z"/>
<path d="M6478 4202 l-27 -18 189 -141 c158 -119 188 -145 183 -162 -7 -26 -3
-26 41 0 20 12 36 28 36 38 0 15 -365 301 -386 301 -5 0 -21 -8 -36 -18z m388
-277 c-11 -8 -25 -15 -30 -15 -6 1 0 7 14 15 32 19 40 18 16 0z"/>
<path d="M3888 4144 c-45 -23 -70 -60 -51 -73 14 -9 291 -250 338 -293 47 -44
57 -45 110 -15 66 38 60 49 -128 211 -93 81 -173 143 -179 140 -6 -4 -8 -3 -5
3 4 6 -4 19 -16 31 l-22 20 -47 -24z m101 -132 c34 -29 67 -49 73 -46 6 4 8 2
4 -4 -3 -6 33 -44 84 -87 49 -43 90 -80 90 -83 0 -3 -8 2 -17 10 -164 139
-363 312 -363 315 0 2 15 -8 33 -24 19 -15 62 -52 96 -81z"/>
<path d="M6323 4123 c-18 -9 -33 -20 -33 -24 0 -4 84 -69 186 -145 158 -119
185 -142 181 -161 -5 -28 -8 -28 48 -1 28 14 45 29 45 40 0 12 -68 69 -193
163 -107 80 -196 145 -198 144 -2 0 -19 -8 -36 -16z m396 -277 c-2 -2 -15 -9
-29 -15 -24 -11 -24 -11 -6 3 16 13 49 24 35 12z"/>
<path d="M5091 4064 c0 -11 3 -14 6 -6 3 7 2 16 -1 19 -3 4 -6 -2 -5 -13z"/>
<path d="M6152 4032 c-18 -8 -31 -19 -30 -23 2 -5 85 -69 186 -144 l183 -136
34 20 c19 11 35 17 35 12 0 -5 -13 -14 -30 -21 -27 -11 -49 -45 -37 -57 10 -9
92 41 95 58 2 11 -63 65 -192 162 -108 81 -199 147 -203 146 -5 0 -23 -8 -41
-17z"/>
<path d="M5093 3965 c0 -44 2 -61 4 -37 2 23 2 59 0 80 -2 20 -4 1 -4 -43z"/>
<path d="M5983 3942 c-18 -9 -33 -19 -33 -22 0 -3 85 -68 190 -145 148 -109
190 -145 190 -162 0 -28 1 -28 50 -3 26 13 40 27 40 40 0 14 -58 63 -195 165
-107 80 -199 145 -203 144 -4 0 -22 -8 -39 -17z m407 -276 c0 -2 -7 -7 -16
-10 -8 -3 -12 -2 -9 4 6 10 25 14 25 6z"/>
<path d="M5813 3849 c-18 -12 -31 -24 -29 -27 3 -4 88 -68 190 -142 163 -119
185 -138 185 -163 l1 -28 41 23 c78 43 76 47 -123 195 -104 78 -184 131 -191
127 -7 -4 -9 -4 -5 1 9 10 -10 35 -26 35 -6 0 -26 -10 -43 -21z m397 -284
c-14 -8 -29 -14 -35 -14 -5 0 1 6 15 14 14 8 30 14 35 14 6 0 -1 -6 -15 -14z"/>
<path d="M5633 3753 c-27 -15 -43 -32 -43 -44 0 -16 87 -86 305 -244 15 -11
41 -31 57 -44 l29 -24 49 23 c34 16 50 30 53 46 2 13 1 24 -2 24 -4 0 -94 65
-201 145 -107 80 -197 145 -200 144 -3 -1 -24 -12 -47 -26z m75 -85 c35 -26
69 -45 75 -41 5 3 7 2 4 -4 -3 -5 42 -45 100 -88 l106 -78 29 18 c16 9 31 15
34 13 2 -3 -11 -13 -30 -23 l-34 -18 -186 137 c-102 76 -186 140 -186 143 0 6
15 -4 88 -59z"/>
<path d="M2610 3532 c0 -126 -3 -270 -6 -319 l-7 -90 -45 -22 c-24 -12 -42
-25 -38 -28 3 -4 29 4 56 17 l50 23 0 324 c0 178 -2 323 -5 323 -3 0 -5 -103
-5 -228z"/>
<path d="M4800 3610 c-9 -6 -10 -10 -3 -10 6 0 15 5 18 10 8 12 4 12 -15 0z"/>
<path d="M4750 3585 c-14 -8 -20 -14 -14 -15 5 0 19 7 30 15 24 18 16 19 -16
0z"/>
<path d="M4450 3440 c-140 -71 -250 -129 -245 -129 6 0 125 58 265 129 140 71
251 129 245 129 -5 0 -125 -58 -265 -129z"/>
<path d="M5345 3369 c-93 -50 -198 -106 -232 -125 -74 -41 -69 6 -48 -389 8
-154 15 -296 15 -315 0 -34 -3 -37 -89 -83 -49 -26 -91 -53 -94 -60 -6 -16
-67 -51 -67 -38 0 10 -73 -32 -168 -96 -26 -17 -158 -103 -294 -190 -136 -86
-246 -159 -244 -161 2 -1 100 59 217 134 225 143 286 179 259 151 -15 -16 -36
-29 -329 -212 -228 -142 -485 -305 -494 -315 -5 -4 12 -20 38 -36 43 -27 46
-32 43 -66 -2 -23 0 -34 7 -30 5 3 186 118 400 256 215 138 469 298 565 356
124 75 181 115 198 140 13 19 42 46 65 61 23 14 422 229 887 479 465 249 847
455 849 456 2 2 0 37 -4 78 l-7 76 -38 -20 c-20 -10 -41 -16 -45 -12 -5 4 -5
2 -2 -4 5 -8 -85 -61 -251 -150 -141 -75 -279 -149 -307 -164 -27 -15 -113
-60 -190 -100 -77 -40 -198 -104 -268 -142 -71 -39 -130 -68 -131 -66 -2 1 -9
116 -15 253 -18 395 -21 425 -40 425 -9 0 -92 -41 -186 -91z m139 -106 c3 -42
6 -106 6 -142 l0 -66 -166 -89 c-91 -48 -167 -86 -168 -85 -2 2 -7 67 -10 145
l-7 141 163 86 c90 48 166 87 169 87 3 0 9 -34 13 -77z m31 -293 c9 -15 -14
-50 -33 -50 -33 0 -45 15 -33 39 12 22 55 29 66 11z"/>
<path d="M6648 3364 c-27 -13 -48 -27 -48 -29 0 -3 23 6 50 20 28 14 50 28 50
30 0 7 1 7 -52 -21z"/>
<path d="M6498 3284 c-38 -19 -68 -37 -68 -39 0 -3 32 11 70 30 39 19 70 37
70 40 0 7 3 8 -72 -31z"/>
<path d="M6348 3204 c-27 -13 -48 -27 -48 -29 0 -3 23 6 50 20 28 14 50 28 50
30 0 7 1 7 -52 -21z"/>
<path d="M4323 3159 c-20 -13 -30 -26 -26 -32 4 -7 78 -92 165 -189 145 -162
158 -180 153 -208 -3 -16 -3 -30 -1 -30 3 0 22 12 43 26 69 46 68 49 -119 259
-92 105 -171 191 -176 192 -4 2 -22 -7 -39 -18z m357 -357 c0 -5 -12 -14 -27
-21 l-28 -12 25 21 c29 22 30 23 30 12z"/>
<path d="M6188 3119 c-32 -16 -58 -32 -58 -34 0 -3 27 8 60 25 33 17 60 32 60
35 0 7 2 8 -62 -26z"/>
<path d="M4162 3059 l-32 -21 32 -37 c149 -171 261 -290 268 -286 5 3 12 0 16
-6 4 -8 3 -9 -4 -5 -19 12 -14 -10 8 -29 14 -13 18 -25 13 -48 -7 -34 -4 -33
55 10 30 22 41 51 26 66 -4 3 -18 -3 -32 -13 -13 -11 -30 -20 -36 -20 -6 0 4
9 22 20 19 11 32 24 30 29 -7 17 -313 359 -323 360 -5 0 -25 -9 -43 -20z"/>
<path d="M6058 3049 c-32 -16 -58 -32 -58 -34 0 -3 27 8 60 25 33 17 60 32 60
35 0 7 2 8 -62 -26z"/>
<path d="M4004 2957 l-32 -22 170 -190 c150 -169 169 -193 164 -217 -7 -34 -5
-34 43 -3 53 33 56 59 11 111 -136 157 -304 339 -313 341 -7 1 -26 -8 -43 -20z
m347 -374 c-12 -8 -25 -12 -28 -9 -4 3 -1 6 6 6 7 0 10 4 7 8 -2 4 5 9 16 9
21 2 21 2 -1 -14z"/>
<path d="M3838 2853 c-61 -42 -55 -55 100 -226 75 -84 153 -171 172 -194 l36
-42 42 27 c74 47 73 51 -105 249 -88 98 -164 178 -171 178 -6 0 -17 7 -24 15
-11 12 -11 12 6 0 17 -13 19 -13 14 0 -7 23 -30 21 -70 -7z m162 -214 c41 -46
94 -104 116 -128 l42 -45 27 18 c15 10 28 16 30 14 2 -2 -11 -13 -28 -24 l-32
-21 -130 145 c-71 79 -147 165 -169 190 -34 42 -32 41 15 -9 30 -30 88 -93
129 -140z"/>
<path d="M3512 2367 l-223 -142 3 -425 c2 -234 7 -430 11 -437 11 -17 37 -5
47 22 11 28 343 239 379 240 l26 0 3 431 c2 341 0 434 -11 442 -9 8 -68 -25
-235 -131z m178 -181 l0 -174 -151 -96 c-83 -53 -155 -96 -160 -96 -5 0 -9 74
-9 173 l0 172 153 97 c83 54 155 98 160 98 4 0 7 -78 7 -174z m8 -297 c4 -34
-22 -57 -43 -39 -18 15 -19 42 -3 58 19 19 43 10 46 -19z"/>
<path d="M2720 2062 l0 -358 -40 -23 c-22 -12 -40 -29 -40 -37 0 -11 12 -6 45
16 l45 31 0 364 c0 201 -2 365 -5 365 -3 0 -5 -161 -5 -358z"/>
<path d="M1790 1968 l1 -93 102 -64 c56 -35 155 -98 220 -140 118 -74 119 -75
135 -54 24 29 55 43 97 43 53 0 105 -53 105 -107 0 -21 -6 -48 -14 -59 -13
-19 2 -30 323 -235 l337 -215 112 71 112 70 0 41 c0 24 -6 47 -14 54 -8 6 -16
27 -18 45 l-3 34 -90 -59 c-90 -59 -113 -68 -130 -51 -6 5 -127 84 -269 175
-225 143 -261 163 -271 149 -10 -14 -17 -11 -53 22 -23 20 -40 41 -37 45 6 9
-29 32 -337 229 -120 76 -213 129 -219 125 -7 -4 -9 -3 -6 3 6 9 -62 63 -78
63 -3 0 -5 -42 -5 -92z m1297 -860 c-2 -24 -4 -7 -4 37 0 44 2 63 4 43 2 -21
2 -57 0 -80z"/>
<path d="M2286 1592 c-16 -18 -14 -21 39 -56 31 -20 60 -34 65 -31 17 11 11
71 -8 88 -25 22 -75 21 -96 -1z"/>
</g>
</svg>
